<?xml version="1.0" encoding="utf-8"?>
<!-- Generator: Adobe Illustrator 26.2.1, SVG Export Plug-In . SVG Version: 6.00 Build 0)  -->
<svg version="1.1" id="Layer_1" xmlns="http://www.w3.org/2000/svg" xmlns:xlink="http://www.w3.org/1999/xlink" x="0px" y="0px"
	 viewBox="0 0 431.2 107.2" style="enable-background:new 0 0 431.2 107.2;" xml:space="preserve">
<style type="text/css">
	.st0{display:none;fill:#FACC48;}
	.st1{display:none;fill:#FFFFFF;}
	.st2{fill:#83AF56;}
	.st3{fill:#FCE9A6;}
	.st4{fill:#F9C747;}
	.st5{fill:#F29363;}
	.st6{fill:#C0D48B;}
	.st7{fill:#FACC48;}
</style>
<circle class="st0" cx="45.1" cy="59.2" r="71.6"/>
<path class="st1" d="M118.9,57.1c0,37.7-31,68.3-69.1,68.3s-69.1-30.6-69.1-68.3s31-68.3,69.1-68.3c5.2,0,10.2,0.6,15.1,1.6
	C95.8-2.8,118.9,24.5,118.9,57.1z"/>
<path class="st2" d="M29.8,85.8l17.3-31.1L17.5,73.1C17.5,73.1,21.8,80.4,29.8,85.8z"/>
<path class="st3" d="M49,57l0.8,35.6c0,0-12.1-0.8-17.8-5.7L49,57z"/>
<path class="st4" d="M51.3,59.6l2,33c0,0,12.8,0.9,19-5.3L51.3,59.6z"/>
<polygon class="st5" points="72.2,83.1 72.2,60.6 52.3,59.6 "/>
<path class="st6" d="M17,70l28.8-16.8H13.4C13.4,53.2,12.9,64.8,17,70z"/>
<path class="st3" d="M13.3,49.5l32.5,1.1L21.8,30C21.8,30,13.3,36.6,13.3,49.5z"/>
<path class="st4" d="M24,27.4l23.1,21.1l-8.1-31.1C38.9,17.4,29.3,19.5,24,27.4z"/>
<path class="st5" d="M42.5,15.9c0,0,8.1-2.8,11.7,0l-5.2,32L42.5,15.9z"/>
<path class="st7" d="M52.3,57c0,0,14.7-1,21.2,0.7c0,0-4.9-6.2-14.7-4.9C58.8,52.8,53.6,53.4,52.3,57z"/>
<path class="st0" d="M137.5,98.3"/>
<path class="st7" d="M75.4,60.6c0,0,0.8,24-2,38.3C73.5,98.9,85.4,76.4,75.4,60.6z"/>
<g>
	<path d="M119.8,51.5c0,8-5.1,12.7-12.6,12.7C98.4,64.2,93,57.9,93,51c0-7.1,5.5-13.2,13.8-13.2c4.6,0,8.2,1.7,11.5,4.9l-1.9,1.8
		c-2.8-2.8-6.3-4.2-9.5-4.2c-6,0-11.2,4.6-11.2,10.7c0,5.8,4.9,10.9,11.6,10.9c4.8,0,9-2.8,9.7-7.9h-8v-2.5H119.8z"/>
	<path d="M153,51c0,7.4-5.8,13.2-13.2,13.2c-7.7,0-13.3-6.1-13.3-13.1c0-7.5,5.8-13.3,13.1-13.3C147.2,37.8,153,43.5,153,51z
		 M129.2,51.1c0,6.2,4.9,10.6,10.6,10.6c5.9,0,10.7-4.5,10.7-10.8c0-6.4-5.1-10.7-10.7-10.7C134.2,40.3,129.2,44.7,129.2,51.1z"/>
	<path d="M161.1,38.4h2.5v22.7h9.7v2.5h-12.2V38.4z"/>
	<path d="M180.4,38.4h6.2c2.8,0,5.3,0.1,7.8,1.2c4.5,1.8,7.2,6.2,7.2,11.7c0,7.2-4.3,12.3-12.4,12.3h-8.8V38.4z M186.6,61.1
		c4.8,0,7.9-0.4,10.2-3.2c1.4-1.8,2.2-4,2.2-6.7c0-2.6-0.7-4.8-2.1-6.7c-2.4-3.1-6-3.8-11.4-3.8h-2.6v20.2H186.6z"/>
	<path d="M209.6,38.4h14.4v2.5h-11.8v7.9h11.8v2.5h-11.8v9.9h11.8v2.5h-14.4V38.4z"/>
	<path d="M231.4,63.6V38.4h0.5l16.7,19.3V38.4h2.5v25.1h-0.6l-16.6-19v19H231.4z"/>
	<path d="M260.4,63.6V38.4h0.5l16.7,19.3V38.4h2.5v25.1h-0.6l-16.6-19v19H260.4z"/>
	<path d="M289.4,38.4h14.4v2.5h-11.8v7.9h11.8v2.5h-11.8v9.9h11.8v2.5h-14.4V38.4z"/>
	<path d="M323.9,38.4h12.6v2.5h-10.1v7.9h10.1v2.5h-10.1v12.4h-2.5V38.4z"/>
	<path d="M344.1,38.4h5.8c2.6,0,4.6,0.2,5.8,0.6c2.6,1,4.1,3.2,4.1,6.1c0,1.3-0.2,2-0.7,3.1c-1.3,2.6-3.8,3.6-8,3.6l9.1,11.7h-3.1
		l-9-11.7h-1.4v11.7h-2.5V38.4z M346.6,40.9v8.5c1.4,0,2.8,0,4.2,0c2.2,0,3.9-0.2,4.9-1.1c0.9-0.7,1.5-2,1.5-3.3
		c0-2.5-1.7-4.2-5.5-4.2H346.6z"/>
	<path d="M382.6,38.4h2.5v16.3c0,5.9-3.2,9.4-8.3,9.4s-8.3-3.5-8.3-9.4V38.4h2.5v16c0,2,0,3.7,1.3,5.4c1.1,1.4,2.6,2,4.5,2
		c1.9,0,3.4-0.6,4.5-2c1.3-1.6,1.3-3.4,1.3-5.4V38.4z"/>
	<path d="M394,38.4h2.5v25.1H394V38.4z"/>
	<path d="M402.8,40.9v-2.5h13.8v2.5H411v22.7h-2.5V40.9H402.8z"/>
</g>
<path class="st4" d="M63.9,10.5c0,0-33.2-8-48.9,22.4c0,0-15.2,26.6,6.3,49.6c0,0,11.9,15,32.9,14.5c0,0,23.2,0.6,35.4-17.2
	c0,0-10.2,19.8-38.4,20.7c0,0-23.7,1.6-38.4-20.7c0,0-13.1-19.8-4.5-41.4c0,0,4.7-14.5,19.2-23C27.6,15.3,46,4.2,63.9,10.5z"/>
</svg>
