<?xml version="1.0" encoding="utf-8"?>
<!-- Generator: Adobe Illustrator 26.2.1, SVG Export Plug-In . SVG Version: 6.00 Build 0)  -->
<svg version="1.1" id="Layer_1" xmlns="http://www.w3.org/2000/svg" xmlns:xlink="http://www.w3.org/1999/xlink" x="0px" y="0px"
	 viewBox="0 0 431.2 107.2" style="enable-background:new 0 0 431.2 107.2;" xml:space="preserve">
<style type="text/css">
	.st0{display:none;fill:#FACC48;}
	.st1{display:none;fill:#FFFFFF;}
	.st2{fill:#83AF56;}
	.st3{fill:#FCE9A6;}
	.st4{fill:#F9C747;}
	.st5{fill:#F29363;}
	.st6{fill:#C0D48B;}
	.st7{fill:#FACC48;}
	.st8{fill:none;}
	.st9{font-family:'CenturyGothicPro';}
	.st10{font-size:35px;}
	.st11{letter-spacing:3;}
</style>
<circle class="st0" cx="45.1" cy="59.2" r="71.6"/>
<path class="st1" d="M118.9,57.1c0,37.7-31,68.3-69.1,68.3s-69.1-30.6-69.1-68.3s31-68.3,69.1-68.3c5.2,0,10.2,0.6,15.1,1.6
	C95.8-2.8,118.9,24.5,118.9,57.1z"/>
<path class="st2" d="M29.8,85.8l17.3-31.1L17.5,73.1C17.5,73.1,21.8,80.4,29.8,85.8z"/>
<path class="st3" d="M49,57l0.8,35.6c0,0-12.1-0.8-17.8-5.7L49,57z"/>
<path class="st4" d="M51.3,59.6l2,33c0,0,12.8,0.9,19-5.3L51.3,59.6z"/>
<polygon class="st5" points="72.2,83.1 72.2,60.6 52.3,59.6 "/>
<path class="st6" d="M17,70l28.8-16.8H13.4C13.4,53.2,12.9,64.8,17,70z"/>
<path class="st3" d="M13.3,49.5l32.5,1.1L21.8,30C21.8,30,13.3,36.6,13.3,49.5z"/>
<path class="st4" d="M24,27.4l23.1,21.1l-8.1-31.1C38.9,17.4,29.3,19.5,24,27.4z"/>
<path class="st5" d="M42.5,15.9c0,0,8.1-2.8,11.7,0l-5.2,32L42.5,15.9z"/>
<path class="st7" d="M52.3,57c0,0,14.7-1,21.2,0.7c0,0-4.9-6.2-14.7-4.9C58.8,52.8,53.6,53.4,52.3,57z"/>
<path class="st0" d="M137.5,98.3"/>
<path class="st7" d="M75.4,60.6c0,0,0.8,24-2,38.3C73.5,98.9,85.4,76.4,75.4,60.6z"/>
<rect x="91" y="37.8" class="st8" width="524.8" height="127.7"/>
<text transform="matrix(1 0 0 1 90.9735 63.5668)" class="st9 st10 st11">GOLDENNE FRUIT</text>
<path class="st4" d="M63.9,10.5c0,0-33.2-8-48.9,22.4c0,0-15.2,26.6,6.3,49.6c0,0,11.9,15,32.9,14.5c0,0,23.2,0.6,35.4-17.2
	c0,0-10.2,19.8-38.4,20.7c0,0-23.7,1.6-38.4-20.7c0,0-13.1-19.8-4.5-41.4c0,0,4.7-14.5,19.2-23C27.6,15.3,46,4.2,63.9,10.5z"/>
</svg>
