<?xml version="1.0" encoding="utf-8"?>
<!-- Generator: Adobe Illustrator 26.3.1, SVG Export Plug-In . SVG Version: 6.00 Build 0)  -->
<svg version="1.1" id="Layer_1" xmlns="http://www.w3.org/2000/svg" xmlns:xlink="http://www.w3.org/1999/xlink" x="0px" y="0px"
	 viewBox="0 0 74.1 78.2" style="enable-background:new 0 0 74.1 78.2;" xml:space="preserve">
<style type="text/css">
	.st0{display:none;fill:#FACC48;}
	.st1{display:none;fill:#FFFFFF;}
	.st2{fill:#83AF56;}
	.st3{fill:#FCE9A6;}
	.st4{fill:#F9C747;}
	.st5{fill:#F29363;}
	.st6{fill:#C0D48B;}
	.st7{fill:#FACC48;}
	.st8{display:none;}
	.st9{display:inline;}
</style>
<circle class="st0" cx="40.8" cy="54.5" r="71.6"/>
<path class="st1" d="M114.6,52.4c0,37.7-31,68.3-69.1,68.3s-69.1-30.6-69.1-68.3s31-68.3,69.1-68.3c5.2,0,10.2,0.6,15.1,1.6
	C91.5-7.5,114.6,19.8,114.6,52.4z"/>
<path class="st2" d="M24.8,62.3l12.9-23.2L15.6,52.9C15.6,52.9,18.8,58.3,24.8,62.3z"/>
<path class="st3" d="M39.1,40.9l0.6,26.6c0,0-9-0.6-13.3-4.3L39.1,40.9z"/>
<path class="st4" d="M40.8,42.8l1.5,24.6c0,0,9.5,0.7,14.2-4L40.8,42.8z"/>
<polygon class="st5" points="56.4,60.3 56.4,43.5 41.6,42.8 "/>
<path class="st6" d="M15.2,50.5L36.7,38H12.5C12.5,38,12.2,46.7,15.2,50.5z"/>
<path class="st3" d="M12.5,35.3l24.2,0.8L18.8,20.7C18.8,20.7,12.5,25.6,12.5,35.3z"/>
<path class="st4" d="M20.4,18.8l17.2,15.7l-6-23.2C31.6,11.3,24.4,12.9,20.4,18.8z"/>
<path class="st5" d="M34.2,10.2c0,0,6-2.1,8.7,0l-3.9,23.9L34.2,10.2z"/>
<path class="st7" d="M41.6,40.9c0,0,11-0.7,15.8,0.5c0,0-3.7-4.6-11-3.7C46.4,37.7,42.5,38.2,41.6,40.9z"/>
<path class="st0" d="M133.2,93.6"/>
<path class="st7" d="M58.8,43.5c0,0,0.6,17.9-1.5,28.6C57.4,72.1,66.2,55.3,58.8,43.5z"/>
<g class="st8">
	<path class="st9" d="M115.5,46.8c0,8-5.1,12.7-12.6,12.7c-8.8,0-14.2-6.3-14.2-13.2c0-7.1,5.5-13.2,13.8-13.2
		c4.6,0,8.2,1.7,11.5,4.9l-1.9,1.8c-2.8-2.8-6.3-4.2-9.5-4.2c-6,0-11.2,4.6-11.2,10.7c0,5.8,4.9,10.9,11.6,10.9c4.8,0,9-2.8,9.7-7.9
		h-8v-2.5H115.5z"/>
	<path class="st9" d="M148.7,46.3c0,7.4-5.8,13.2-13.2,13.2c-7.7,0-13.3-6.1-13.3-13.1c0-7.5,5.8-13.3,13.1-13.3
		C142.9,33.1,148.7,38.8,148.7,46.3z M124.9,46.4c0,6.2,4.9,10.6,10.6,10.6c5.9,0,10.7-4.5,10.7-10.8c0-6.4-5.1-10.7-10.7-10.7
		C129.9,35.6,124.9,40,124.9,46.4z"/>
	<path class="st9" d="M156.8,33.7h2.5v22.7h9.7v2.5h-12.2V33.7z"/>
	<path class="st9" d="M176.1,33.7h6.2c2.8,0,5.3,0.1,7.8,1.2c4.5,1.8,7.2,6.2,7.2,11.7c0,7.2-4.3,12.3-12.4,12.3h-8.8V33.7z
		 M182.3,56.4c4.8,0,7.9-0.4,10.2-3.2c1.4-1.8,2.2-4,2.2-6.7c0-2.6-0.7-4.8-2.1-6.7c-2.4-3.1-6-3.8-11.4-3.8h-2.6v20.2h3.7V56.4z"/>
	<path class="st9" d="M205.3,33.7h14.4v2.5h-11.8v7.9h11.8v2.5h-11.8v9.9h11.8V59h-14.4V33.7z"/>
	<path class="st9" d="M227.1,58.9V33.7h0.5L244.3,53V33.7h2.5v25.1h-0.6l-16.6-19v19L227.1,58.9L227.1,58.9z"/>
	<path class="st9" d="M256.1,58.9V33.7h0.5L273.3,53V33.7h2.5v25.1h-0.6l-16.6-19v19L256.1,58.9L256.1,58.9z"/>
	<path class="st9" d="M285.1,33.7h14.4v2.5h-11.8v7.9h11.8v2.5h-11.8v9.9h11.8V59h-14.4V33.7z"/>
	<path class="st9" d="M319.6,33.7h12.6v2.5h-10.1v7.9h10.1v2.5h-10.1V59h-2.5V33.7z"/>
	<path class="st9" d="M339.8,33.7h5.8c2.6,0,4.6,0.2,5.8,0.6c2.6,1,4.1,3.2,4.1,6.1c0,1.3-0.2,2-0.7,3.1c-1.3,2.6-3.8,3.6-8,3.6
		l9.1,11.7h-3.1l-9-11.7h-1.4v11.7h-2.5L339.8,33.7L339.8,33.7z M342.3,36.2v8.5c1.4,0,2.8,0,4.2,0c2.2,0,3.9-0.2,4.9-1.1
		c0.9-0.7,1.5-2,1.5-3.3c0-2.5-1.7-4.2-5.5-4.2L342.3,36.2L342.3,36.2z"/>
	<path class="st9" d="M378.3,33.7h2.5V50c0,5.9-3.2,9.4-8.3,9.4s-8.3-3.5-8.3-9.4V33.7h2.5v16c0,2,0,3.7,1.3,5.4
		c1.1,1.4,2.6,2,4.5,2s3.4-0.6,4.5-2c1.3-1.6,1.3-3.4,1.3-5.4V33.7z"/>
	<path class="st9" d="M389.7,33.7h2.5v25.1h-2.5V33.7z"/>
	<path class="st9" d="M398.5,36.2v-2.5h13.8v2.5h-5.6v22.7h-2.5V36.2H398.5z"/>
</g>
<path class="st4" d="M50.2,6.2c0,0-24.8-6-36.5,16.7c0,0-11.3,19.8,4.7,37c0,0,8.9,11.2,24.5,10.8c0,0,17.3,0.4,26.4-12.8
	c0,0-7.6,14.8-28.6,15.4c0,0-17.7,1.2-28.6-15.4c0,0-9.8-14.8-3.4-30.9c0,0,3.5-10.8,14.3-17.2C23.1,9.7,36.9,1.5,50.2,6.2z"/>
</svg>
