<?xml version="1.0" encoding="utf-8"?>
<!-- Generator: Adobe Illustrator 26.3.1, SVG Export Plug-In . SVG Version: 6.00 Build 0)  -->
<svg version="1.1" id="Layer_1" xmlns="http://www.w3.org/2000/svg" xmlns:xlink="http://www.w3.org/1999/xlink" x="0px" y="0px"
	 viewBox="0 0 330 122" style="enable-background:new 0 0 330 122;" xml:space="preserve">
<style type="text/css">
	.st0{fill:#070707;}
	.st1{fill:#B86F1A;}
	.st2{fill:none;stroke:#694698;stroke-miterlimit:10;}
	.st3{fill:url(#SVGID_1_);}
	.st4{fill:url(#SVGID_00000085235213004067104230000009303805170489905832_);}
	.st5{fill:url(#SVGID_00000161598535189183351760000008396264926605497535_);}
	.st6{fill:url(#SVGID_00000031900377580598778910000012929198865964596378_);}
	.st7{fill:url(#SVGID_00000058559537549132185610000008252439796260707721_);}
	.st8{fill:url(#SVGID_00000166649128305380601620000003367425751912937607_);}
	.st9{fill:url(#SVGID_00000093862897827386262070000003787486132118097818_);}
	.st10{fill:url(#SVGID_00000100385179602286664000000007922066351804945328_);}
	.st11{fill:url(#SVGID_00000107573264646954386520000014554367158320497848_);}
	.st12{fill:url(#SVGID_00000178179737688032337000000005860452053840646571_);}
	.st13{fill:#694698;}
</style>
<rect x="-50.7" y="-1" class="st0" width="505.7" height="151.3"/>
<g>
	<g>
		<path class="st1" d="M155,99c-0.7,1.8-1.3,3.6-1.9,5.3c-0.6,1.7-0.9,2.6-0.9,2.7h-0.8c0-0.1-0.2-0.7-0.7-1.9
			c-0.4-1.2-1-2.7-1.7-4.6h0c-0.6,1.5-1.1,2.9-1.7,4.3s-0.8,2.1-0.8,2.2h-0.9c0-0.1-0.3-0.9-0.8-2.4c-0.5-1.5-1.1-3.3-2-5.6l1-0.4
			c0,0.1,0.3,0.8,0.7,2.2c0.5,1.4,1,2.9,1.6,4.6l0,0c0.6-1.6,1.2-3,1.6-4.3c0.5-1.3,0.7-2,0.7-2.1h0.9c0,0.1,0.3,0.8,0.7,2.2
			c0.5,1.4,1,2.8,1.5,4.2l0,0c0.7-1.8,1.2-3.3,1.7-4.7c0.4-1.3,0.7-2,0.7-2.1L155,99z"/>
		<path class="st1" d="M169.1,107c0,0-0.3,0-0.8,0c-0.5,0-1.1,0-1.9,0c-0.5,0-1,0-1.4,0c-0.4,0-0.8,0-1.1,0c0-0.2,0-0.7,0-1.5
			c0-0.8,0-1.6,0-2.4c0-0.5,0-1.1,0-1.8c0-0.8,0-1.5,0-2.4c0.3,0,0.7,0,1.1,0c0.4,0,0.9,0,1.3,0c0.8,0,1.4,0,1.9,0
			c0.5,0,0.8,0,0.8,0v0.8c0,0-0.3,0-0.8,0c-0.5,0-1.1,0-1.8,0c-0.3,0-0.6,0-0.9,0c-0.3,0-0.5,0-0.7,0c0,0.5,0,0.9,0,1.4
			c0,0.5,0,0.9,0,1.3c0.2,0,0.4,0,0.7,0c0.3,0,0.5,0,0.7,0c0.7,0,1.4,0,1.9,0c0.6,0,0.9,0,0.9,0v0.8c0,0-0.4,0-1,0
			c-0.6,0-1.2,0-1.8,0c-0.2,0-0.4,0-0.7,0c-0.3,0-0.5,0-0.7,0c0,0.8,0,1.4,0,1.8c0,0.5,0,0.8,0,1.1c0.2,0,0.5,0,0.9,0
			c0.3,0,0.7,0,1.1,0c0.6,0,1.1,0,1.5,0c0.4,0,0.6,0,0.7,0V107z"/>
		<path class="st1" d="M184.3,104.6c0,0.4-0.1,0.8-0.3,1.1c-0.2,0.3-0.5,0.6-0.9,0.8c-0.4,0.2-0.7,0.3-1.2,0.4
			c-0.4,0.1-0.9,0.1-1.5,0.1c-0.4,0-0.8,0-1.2,0c-0.4,0-0.7,0-0.7,0c0-0.8,0-1.5,0-2.2c0-0.7,0-1.4,0-2c0-1.2,0-2.1,0-2.8
			c0-0.7,0-1.1,0-1.1c0.1,0,0.3,0,0.7,0s0.8,0,1.1,0c0.4,0,0.8,0,1.2,0.1c0.4,0.1,0.7,0.1,0.9,0.2c0.4,0.1,0.7,0.4,0.9,0.6
			c0.2,0.3,0.3,0.6,0.3,1c0,0.4-0.1,0.8-0.4,1.1c-0.3,0.3-0.6,0.5-0.9,0.7v0.1c0.3,0,0.6,0.1,0.8,0.2c0.3,0.1,0.5,0.3,0.7,0.5
			c0.2,0.2,0.3,0.4,0.4,0.6C184.2,104,184.3,104.3,184.3,104.6z M183.2,104.6c0-0.2,0-0.4-0.1-0.6s-0.2-0.3-0.3-0.5
			c-0.1-0.1-0.3-0.3-0.6-0.3c-0.2-0.1-0.5-0.1-0.8-0.1c-0.2,0-0.4,0-0.6,0c-0.1,0-0.2,0-0.3,0l-0.1-0.7c0.3,0,0.6,0,0.8-0.1
			c0.2-0.1,0.4-0.2,0.6-0.3c0.2-0.1,0.3-0.3,0.4-0.5c0.1-0.2,0.2-0.4,0.2-0.6c0-0.2-0.1-0.5-0.2-0.6c-0.1-0.2-0.3-0.3-0.5-0.4
			c-0.2-0.1-0.4-0.1-0.7-0.2c-0.3,0-0.5-0.1-0.8-0.1c-0.2,0-0.4,0-0.5,0c-0.2,0-0.3,0-0.3,0c0,0.6,0,1.2,0,1.9c0,0.7,0,1.2,0,1.5
			c0,0.7,0,1.4,0,2.1c0,0.7,0,1.1,0,1.1c0.1,0,0.2,0,0.3,0c0.1,0,0.3,0,0.4,0c0.5,0,0.9,0,1.3-0.1s0.7-0.2,1-0.3
			c0.2-0.1,0.4-0.3,0.5-0.5C183.2,105.2,183.2,104.9,183.2,104.6z"/>
		<path class="st1" d="M210.4,103c0,0.7-0.2,1.3-0.5,1.9c-0.4,0.5-0.8,1-1.4,1.3c-0.5,0.3-1,0.5-1.6,0.7c-0.6,0.2-1.3,0.2-2,0.2
			c-0.3,0-0.6,0-0.8,0c-0.3,0-0.4,0-0.5,0c0,0,0-0.5,0-1.4c0-0.9,0-1.8,0-2.6c0-0.4,0-1,0-1.7c0-0.7,0-1.5,0-2.5c0,0,0.2,0,0.6,0
			c0.3,0,0.5,0,0.5,0c0.8,0,1.6,0.1,2.2,0.2c0.7,0.2,1.2,0.4,1.7,0.7c0.6,0.4,1,0.8,1.3,1.4C210.3,101.7,210.4,102.3,210.4,103z
			 M209.4,103c0-0.5-0.1-1-0.3-1.4c-0.2-0.4-0.6-0.8-1.1-1.1c-0.5-0.3-1-0.5-1.5-0.6c-0.6-0.1-1.1-0.2-1.5-0.2c-0.1,0-0.1,0-0.2,0
			c-0.1,0-0.1,0-0.1,0c0,0.6,0,1.2,0,1.6c0,0.4,0,0.8,0,1c0,0.2,0,0.6,0,1.3s0,1.6,0,2.7c0.1,0,0.1,0,0.2,0s0.1,0,0.2,0
			c0.5,0,1.1-0.1,1.6-0.2c0.5-0.1,1-0.3,1.3-0.5c0.5-0.3,0.8-0.6,1.1-1.1C209.2,104.1,209.4,103.6,209.4,103z"/>
		<path class="st1" d="M224.9,107c0,0-0.3,0-0.8,0c-0.5,0-1.1,0-1.9,0c-0.5,0-1,0-1.4,0c-0.4,0-0.8,0-1.1,0c0-0.2,0-0.7,0-1.5
			c0-0.8,0-1.6,0-2.4c0-0.5,0-1.1,0-1.8c0-0.8,0-1.5,0-2.4c0.3,0,0.7,0,1.1,0c0.4,0,0.9,0,1.3,0c0.8,0,1.4,0,1.9,0
			c0.5,0,0.8,0,0.8,0v0.8c0,0-0.3,0-0.8,0c-0.5,0-1.1,0-1.8,0c-0.3,0-0.6,0-0.9,0c-0.3,0-0.5,0-0.7,0c0,0.5,0,0.9,0,1.4
			c0,0.5,0,0.9,0,1.3c0.2,0,0.4,0,0.7,0c0.3,0,0.5,0,0.7,0c0.7,0,1.4,0,1.9,0c0.6,0,0.9,0,0.9,0v0.8c0,0-0.4,0-1,0
			c-0.6,0-1.2,0-1.8,0c-0.2,0-0.4,0-0.7,0c-0.3,0-0.5,0-0.7,0c0,0.8,0,1.4,0,1.8c0,0.5,0,0.8,0,1.1c0.2,0,0.5,0,0.9,0
			c0.3,0,0.7,0,1.1,0c0.6,0,1.1,0,1.5,0c0.4,0,0.6,0,0.7,0V107z"/>
		<path class="st1" d="M238.4,104.7c0,0.4-0.1,0.8-0.3,1.1c-0.2,0.3-0.5,0.6-0.8,0.8c-0.3,0.2-0.7,0.3-1.1,0.4
			c-0.4,0.1-0.8,0.1-1.3,0.1c-0.3,0-0.5,0-0.8,0c-0.3,0-0.4,0-0.5,0l0-0.9c0.1,0,0.2,0,0.5,0c0.3,0,0.6,0,0.9,0c0.2,0,0.5,0,0.8-0.1
			c0.3-0.1,0.6-0.1,0.8-0.2c0.2-0.1,0.4-0.3,0.6-0.4c0.1-0.2,0.2-0.4,0.2-0.6c0-0.3-0.1-0.5-0.2-0.7c-0.1-0.2-0.3-0.4-0.6-0.5
			c-0.2-0.1-0.4-0.2-0.7-0.4c-0.3-0.1-0.6-0.3-0.8-0.4c-0.4-0.3-0.7-0.5-0.9-0.8s-0.3-0.6-0.3-1c0-0.4,0.1-0.7,0.2-1
			c0.2-0.3,0.4-0.5,0.6-0.7c0.3-0.2,0.6-0.3,1-0.4c0.4-0.1,0.8-0.1,1.3-0.1c0.3,0,0.5,0,0.8,0c0.3,0,0.4,0,0.4,0l0.1,0.9
			c0,0-0.2,0-0.4,0c-0.3,0-0.6,0-1,0c-0.2,0-0.5,0-0.7,0.1c-0.2,0.1-0.5,0.1-0.6,0.2c-0.2,0.1-0.3,0.2-0.4,0.4
			c-0.1,0.2-0.2,0.4-0.2,0.6c0,0.2,0.1,0.4,0.2,0.6c0.1,0.2,0.3,0.4,0.7,0.6c0.2,0.1,0.4,0.2,0.7,0.4c0.3,0.1,0.5,0.3,0.8,0.4
			c0.4,0.2,0.7,0.5,0.9,0.8C238.3,104,238.4,104.3,238.4,104.7z"/>
		<path class="st1" d="M248.6,107h-1c0-0.2,0-0.7,0-1.3c0-0.6,0-1.5,0-2.7c0-0.5,0-1.1,0-1.8c0-0.8,0-1.5,0-2.3h1c0,0.6,0,1.3,0,2
			c0,0.8,0,1.4,0,1.9c0,1.2,0,2.2,0,2.9C248.6,106.3,248.6,106.8,248.6,107z"/>
		<path class="st1" d="M264.5,102.8c0,0.3,0,0.6,0,1c0,0.4,0,0.7,0,1c0,0.4,0,0.9,0,1.4c0,0.5,0,0.8,0,0.8c0,0-0.2,0-0.4,0
			c-0.2,0-0.4,0-0.6,0c-1,0-1.8-0.1-2.6-0.3c-0.7-0.2-1.4-0.6-1.9-1.1c-0.3-0.3-0.6-0.7-0.8-1.2c-0.2-0.5-0.3-1-0.3-1.6
			c0-0.7,0.2-1.4,0.6-2c0.4-0.6,0.9-1.1,1.6-1.4c0.5-0.2,1-0.4,1.6-0.6c0.6-0.1,1.2-0.2,1.9-0.2c0.1,0,0.2,0,0.3,0
			c0.1,0,0.2,0,0.2,0l0.1,0.9c0,0-0.1,0-0.2,0c-0.1,0-0.2,0-0.3,0c-0.6,0-1.2,0.1-1.7,0.2c-0.5,0.1-1,0.3-1.4,0.5
			c-0.5,0.3-0.9,0.7-1.2,1.1s-0.4,1-0.4,1.5c0,0.7,0.2,1.2,0.5,1.7c0.3,0.4,0.7,0.8,1.2,1c0.4,0.2,0.9,0.4,1.4,0.5
			c0.5,0.1,1,0.1,1.5,0.1c0-0.1,0-0.4,0-1c0-0.6,0-1.4,0-2.5H264.5z"/>
		<path class="st1" d="M281.1,98.8c0,0.6,0,1.4,0,2.2c0,0.8,0,1.4,0,1.8c0,1.2,0,2.1,0,2.8c0,0.7,0,1,0,1.1l-0.8,0.4
			c-1.2-1.7-2.4-3.2-3.4-4.5c-1.1-1.3-1.7-2.1-1.9-2.3l0,0c0,1.1,0,2.4,0,4c0,1.6,0,2.5,0,2.8h-1c0-0.1,0-0.5,0-1.1
			c0-0.6,0-1.5,0-2.6c0-0.4,0-1,0-1.8c0-0.7,0-1.5,0-2.3l0.9-0.4c0.1,0.1,0.7,0.9,1.9,2.4c1.2,1.5,2.3,2.9,3.3,4.2l0,0
			c0-0.6,0-1.7,0-3.2c0-1.5,0-2.6,0-3.3H281.1z"/>
		<path class="st1" d="M296.1,107c0,0-0.3,0-0.8,0c-0.5,0-1.1,0-1.9,0c-0.5,0-1,0-1.4,0c-0.4,0-0.8,0-1.1,0c0-0.2,0-0.7,0-1.5
			c0-0.8,0-1.6,0-2.4c0-0.5,0-1.1,0-1.8c0-0.8,0-1.5,0-2.4c0.3,0,0.7,0,1.1,0c0.4,0,0.9,0,1.3,0c0.8,0,1.4,0,1.9,0
			c0.5,0,0.8,0,0.8,0v0.8c0,0-0.3,0-0.8,0c-0.5,0-1.1,0-1.8,0c-0.3,0-0.6,0-0.9,0c-0.3,0-0.5,0-0.7,0c0,0.5,0,0.9,0,1.4
			c0,0.5,0,0.9,0,1.3c0.2,0,0.4,0,0.7,0c0.3,0,0.5,0,0.7,0c0.7,0,1.4,0,1.9,0c0.6,0,0.9,0,0.9,0v0.8c0,0-0.4,0-1,0
			c-0.6,0-1.2,0-1.8,0c-0.2,0-0.4,0-0.7,0c-0.3,0-0.5,0-0.7,0c0,0.8,0,1.4,0,1.8c0,0.5,0,0.8,0,1.1c0.2,0,0.5,0,0.9,0
			c0.3,0,0.7,0,1.1,0c0.6,0,1.1,0,1.5,0c0.4,0,0.6,0,0.7,0V107z"/>
		<path class="st1" d="M311.8,106.5l-0.8,0.6c-0.1-0.1-0.4-0.4-1-1.1c-0.5-0.6-1.4-1.6-2.5-2.9l0-0.1c0.2,0,0.4-0.1,0.6-0.3
			c0.3-0.1,0.5-0.3,0.6-0.4c0.2-0.1,0.3-0.3,0.4-0.5c0.1-0.2,0.2-0.5,0.2-0.8c0-0.3-0.1-0.6-0.2-0.8c-0.2-0.2-0.4-0.4-0.7-0.5
			c-0.2-0.1-0.5-0.1-0.7-0.2c-0.3,0-0.5,0-0.7,0c-0.1,0-0.3,0-0.3,0c-0.1,0-0.1,0-0.2,0c0,0.8,0,1.5,0,2c0,0.6,0,1,0,1.3
			c0,0.6,0,1.3,0,2.3c0,1,0,1.6,0,1.8h-1c0-0.2,0-0.7,0-1.4c0-0.7,0-1.6,0-2.6c0-0.2,0-0.6,0-1.1c0-0.5,0-1.6,0-3c0,0,0.2,0,0.6,0
			c0.4,0,0.7,0,1,0c0.4,0,0.7,0,1,0.1c0.3,0,0.7,0.1,1,0.3c0.4,0.2,0.7,0.4,1,0.8c0.2,0.3,0.4,0.7,0.4,1.2c0,0.6-0.2,1.1-0.5,1.4
			c-0.4,0.4-0.7,0.7-1,0.9v0c0.6,0.7,1.2,1.3,1.8,2C311.4,106.1,311.8,106.5,311.8,106.5z"/>
	</g>
</g>
<path class="st2" d="M127.9,15.5c-7.9,4.8-6.5,33.4-6.5,33.4"/>
<path class="st2" d="M122,12.2c0,0-7.2,9.7-2.1,34.3"/>
<linearGradient id="SVGID_1_" gradientUnits="userSpaceOnUse" x1="44.3791" y1="89.5737" x2="56.7953" y2="89.5737">
	<stop  offset="0.1388" style="stop-color:#FCE200"/>
	<stop  offset="0.1476" style="stop-color:#FBDF00"/>
	<stop  offset="0.3451" style="stop-color:#EFB402"/>
	<stop  offset="0.495" style="stop-color:#E9990A"/>
	<stop  offset="0.5787" style="stop-color:#E7900C"/>
	<stop  offset="0.7554" style="stop-color:#AF6E5A"/>
	<stop  offset="0.9989" style="stop-color:#694698"/>
</linearGradient>
<path class="st3" d="M58,82.3c0,0-2.6,9.3-15.2,14.6c0,0-2.8-0.8,2-2.3c0,0,8.7-4.5,10.9-12.3H58z"/>
<linearGradient id="SVGID_00000035510210878692259800000013128114472627020961_" gradientUnits="userSpaceOnUse" x1="24.2506" y1="70.5567" x2="117.7082" y2="70.5567">
	<stop  offset="0.1388" style="stop-color:#FCE200"/>
	<stop  offset="0.1476" style="stop-color:#FBDF00"/>
	<stop  offset="0.3451" style="stop-color:#EFB402"/>
	<stop  offset="0.495" style="stop-color:#E9990A"/>
	<stop  offset="0.5787" style="stop-color:#E7900C"/>
	<stop  offset="0.7554" style="stop-color:#AF6E5A"/>
	<stop  offset="0.9989" style="stop-color:#694698"/>
</linearGradient>
<path style="fill:url(#SVGID_00000035510210878692259800000013128114472627020961_);" d="M119.3,46.3L78.7,68.4
	c0,0-18.7,10.9-26.9,11c0,0-12.1,1.5-30.2,10.2c0,0-4.5,2.1,2.8,2.9c0,0,25.6,10.1,55.5-12.1L121,49.2L119.3,46.3z"/>
<linearGradient id="SVGID_00000044163010060707605350000004105776161444255404_" gradientUnits="userSpaceOnUse" x1="129.6783" y1="53.5677" x2="120.8235" y2="48.8251">
	<stop  offset="0.1388" style="stop-color:#FCE200"/>
	<stop  offset="0.1476" style="stop-color:#FBDF00"/>
	<stop  offset="0.3451" style="stop-color:#EFB402"/>
	<stop  offset="0.495" style="stop-color:#E9990A"/>
	<stop  offset="0.5787" style="stop-color:#E7900C"/>
	<stop  offset="0.7559" style="stop-color:#AF6E5A"/>
	<stop  offset="1" style="stop-color:#694698"/>
</linearGradient>
<path style="fill:url(#SVGID_00000044163010060707605350000004105776161444255404_);" d="M122,45.3c0,0-4.2-1.5-2.8,2.6
	c0,0,5.4,8.5,8.2,8.3c0,0,3.8,0.1-0.6-6.2C126.9,50,126,48.1,122,45.3z"/>
<linearGradient id="SVGID_00000110463612412768603570000000431800532868921010_" gradientUnits="userSpaceOnUse" x1="76.3493" y1="79.027" x2="123.6823" y2="79.027">
	<stop  offset="0.1388" style="stop-color:#FCE200"/>
	<stop  offset="0.1476" style="stop-color:#FBDF00"/>
	<stop  offset="0.3451" style="stop-color:#EFB402"/>
	<stop  offset="0.495" style="stop-color:#E9990A"/>
	<stop  offset="0.5787" style="stop-color:#E7900C"/>
	<stop  offset="0.7554" style="stop-color:#AF6E5A"/>
	<stop  offset="0.9989" style="stop-color:#694698"/>
</linearGradient>
<path style="fill:url(#SVGID_00000110463612412768603570000000431800532868921010_);" d="M99.4,65.6c0,0-5.3,13.8-1.6,13.5
	c0,0,24.2-5.8,29.2-3.7c0,0,6,2-5.7,10.3c-0.2,0.2-0.5,0.4-0.7,0.6c-1.3,1.5-7.3,7.4-14.9,5.8c0,0-3.1-1.2-9.7-0.8
	c0,0,0-1.6,12.1-0.9c0,0,5.8,0.9,10.6-4.4c0,0,6-4.8,7.5-7.4c0,0,1.2-1.4-7.3,3.9c0,0-4.5,4.6-18.2,2.6c0,0-8.7-1.2-8.7-7.1v-6.8
	L99.4,65.6z"/>
<linearGradient id="SVGID_00000079457860097217107120000006134458833262424455_" gradientUnits="userSpaceOnUse" x1="104.5414" y1="92.1906" x2="134.3909" y2="92.1906">
	<stop  offset="0.1388" style="stop-color:#FCE200"/>
	<stop  offset="0.1476" style="stop-color:#FBDF00"/>
	<stop  offset="0.3451" style="stop-color:#EFB402"/>
	<stop  offset="0.495" style="stop-color:#E9990A"/>
	<stop  offset="0.5787" style="stop-color:#E7900C"/>
	<stop  offset="0.7554" style="stop-color:#AF6E5A"/>
	<stop  offset="0.9989" style="stop-color:#694698"/>
</linearGradient>
<path style="fill:url(#SVGID_00000079457860097217107120000006134458833262424455_);" d="M126.7,81.3c0,0,7.3-2.2,2.5,6.4
	c0,0-5.4,10.3-21.2,15.8c0,0-1.4-0.4,3.2-2.4c0,0,17.8-10.8,17.5-17.2c0,0-0.2-0.5-0.9-0.5l-3.7,0.6L126.7,81.3z"/>
<linearGradient id="SVGID_00000169558664844052396630000002647980591925889437_" gradientUnits="userSpaceOnUse" x1="70.3282" y1="96.865" x2="85.4815" y2="96.865">
	<stop  offset="0.1388" style="stop-color:#FCE200"/>
	<stop  offset="0.1476" style="stop-color:#FBDF00"/>
	<stop  offset="0.3451" style="stop-color:#EFB402"/>
	<stop  offset="0.495" style="stop-color:#E9990A"/>
	<stop  offset="0.5787" style="stop-color:#E7900C"/>
	<stop  offset="0.7554" style="stop-color:#AF6E5A"/>
	<stop  offset="0.9989" style="stop-color:#694698"/>
</linearGradient>
<path style="fill:url(#SVGID_00000169558664844052396630000002647980591925889437_);" d="M69.9,93.7l0.8-7.3l-3.9,2
	c0,0-0.2,11.5,2,7.9l8.5-3.2c0,0-8.3,10.9-7.3,16.4c0,0,1-1.2,2.1-4c0,0,4.8-10.7,7.7-13.2c0,0,2.1-4-2.6-2l8.1-6.8
	c0,0,2.4-2.5,2.1,2.6c0,0-4.9,17-1.2,26c0,0,2.7,2.1,1.2-0.8c0,0-1.9-8.7-0.3-14.4c0,0,4.4-14.2,0.7-16c0,0-2.1-2.8-13.7,9.5
	L69.9,93.7z"/>
<linearGradient id="SVGID_00000016071678030944064730000011425013277474631610_" gradientUnits="userSpaceOnUse" x1="47.324" y1="100.8643" x2="60.9733" y2="97.4994">
	<stop  offset="0" style="stop-color:#714798"/>
	<stop  offset="0.3288" style="stop-color:#FCE200"/>
	<stop  offset="0.336" style="stop-color:#FBDF00"/>
	<stop  offset="0.4946" style="stop-color:#EFB402"/>
	<stop  offset="0.615" style="stop-color:#E9990A"/>
	<stop  offset="0.6823" style="stop-color:#E7900C"/>
	<stop  offset="0.8154" style="stop-color:#AF6E5A"/>
	<stop  offset="0.9989" style="stop-color:#694698"/>
</linearGradient>
<path style="fill:url(#SVGID_00000016071678030944064730000011425013277474631610_);" d="M60.9,90.9c0,0-9.4,17.3-11.7,16.1
	c0,0-1.2-0.1-3.3-7.3l-1.2-4.9l2.8-0.4c0,0,0.7,8.3,1.6,9.5c0,0,0.4,1,7.2-11.5L60.9,90.9z"/>
<linearGradient id="SVGID_00000183235350766066171390000003557651935168539796_" gradientUnits="userSpaceOnUse" x1="52.0869" y1="74.7271" x2="56.8574" y2="74.7271">
	<stop  offset="0.1388" style="stop-color:#FCE200"/>
	<stop  offset="0.1476" style="stop-color:#FBDF00"/>
	<stop  offset="0.3451" style="stop-color:#EFB402"/>
	<stop  offset="0.495" style="stop-color:#E9990A"/>
	<stop  offset="0.5787" style="stop-color:#E7900C"/>
	<stop  offset="0.7554" style="stop-color:#AF6E5A"/>
	<stop  offset="0.9989" style="stop-color:#694698"/>
</linearGradient>
<path style="fill:url(#SVGID_00000183235350766066171390000003557651935168539796_);" d="M59.1,77.8l-1.1-7.2c0,0,1.1-3.7-6.1,8.9
	l3.6-0.5l1.3-3l0.4,2.6L59.1,77.8z"/>
<linearGradient id="SVGID_00000096763761232067517280000018343746968182849179_" gradientUnits="userSpaceOnUse" x1="24.701" y1="102.0512" x2="36.7946" y2="102.0512">
	<stop  offset="0.1388" style="stop-color:#FCE200"/>
	<stop  offset="0.1476" style="stop-color:#FBDF00"/>
	<stop  offset="0.3451" style="stop-color:#EFB402"/>
	<stop  offset="0.495" style="stop-color:#E9990A"/>
	<stop  offset="0.5787" style="stop-color:#E7900C"/>
	<stop  offset="0.7554" style="stop-color:#AF6E5A"/>
	<stop  offset="0.9989" style="stop-color:#694698"/>
</linearGradient>
<path style="fill:url(#SVGID_00000096763761232067517280000018343746968182849179_);" d="M41.9,94.8c0,0-2.6,9.3-15.2,14.6
	c0,0-2.8-0.8,2-2.3c0,0,8.7-4.5,10.9-12.3H41.9z"/>
<linearGradient id="SVGID_00000107572951769541190640000008581414554279094675_" gradientUnits="userSpaceOnUse" x1="19.0783" y1="89.5171" x2="40.9004" y2="89.5171">
	<stop  offset="0.1388" style="stop-color:#FCE200"/>
	<stop  offset="0.1476" style="stop-color:#FBDF00"/>
	<stop  offset="0.3451" style="stop-color:#EFB402"/>
	<stop  offset="0.495" style="stop-color:#E9990A"/>
	<stop  offset="0.5787" style="stop-color:#E7900C"/>
	<stop  offset="0.7554" style="stop-color:#AF6E5A"/>
	<stop  offset="0.9989" style="stop-color:#694698"/>
</linearGradient>
<path style="fill:url(#SVGID_00000107572951769541190640000008581414554279094675_);" d="M47.5,94.4c0,0-4.8-26.9-5.6-26.3
	c0,0-0.8-3.6-3.2,4.6c0,0-9.7,28.9-22.8,36.7c0,0-4.3,3.4,0,2.1c0,0,16.2-9.3,24.7-38.3L45,95.8"/>
<g>
	<path class="st13" d="M152.7,65.6V50h-10.3v-4.2h25.2V50h-10.4v15.6H152.7z"/>
	<path class="st13" d="M175,65.6c-3.4,0-4.6-1.6-4.6-4.5v-2.7c0-2.9,1.2-4.5,4.6-4.5h16.8v-1.3c0-1.8-0.8-2.7-2.5-2.7h-18.4v-4.2
		h19.4c4.1,0,6,2.1,6,6.4v13.4H175z M191.8,57.3h-15.1c-1.2,0-1.7,0.6-1.7,1.7v1c0,1.2,0.5,1.8,1.7,1.8h15.1V57.3z"/>
	<path class="st13" d="M209.5,65.6v-6.5l-12.8-13.3h5.9l9.3,9.8l9.3-9.8h5.7l-12.7,13.4v6.4H209.5z"/>
	<path class="st13" d="M235.3,65.6c-4.1,0-6.1-2.1-6.1-6.4V45.8h4.6v12.9c0,1.8,0.8,2.7,2.4,2.7h14.8v4.2H235.3z"/>
	<path class="st13" d="M259.9,65.6c-4.2,0-6.1-2.1-6.1-6.4v-6.9c0-4.3,1.9-6.4,6.1-6.4h13.8c4.2,0,6.1,2.1,6.1,6.4v6.9
		c0,4.3-1.9,6.4-6.1,6.4H259.9z M275.2,52.7c0-1.8-0.8-2.7-2.5-2.7h-11.9c-1.7,0-2.5,0.9-2.5,2.7v6c0,1.8,0.8,2.7,2.5,2.7h11.9
		c1.7,0,2.5-0.9,2.5-2.7V52.7z"/>
	<path class="st13" d="M305.5,65.6c-0.3-0.2-0.5-0.6-0.5-1.3v-3.7c0-1.3-0.8-1.8-2.1-1.8H288v6.8h-4.6V45.8h21.2
		c3.4,0,4.6,1.6,4.6,4.5v2.5c0,3.3-1.6,3.8-2.8,4c1.2,0.1,3.1,0.8,3.1,3.8v3.7c0,0.7,0.2,1.1,0.5,1.3H305.5z M304.7,51.4
		c0-1.1-0.5-1.7-1.7-1.7h-15v5.6h14.8c1.1,0,1.9-0.4,1.9-1.7V51.4z"/>
	<path class="st13" d="M143.4,92.9V73.1h21.2c3.4,0,4.6,1.6,4.6,4.5v1.3c0,3.3-1.6,3.8-2.8,4c1.2,0.1,3.1,0.7,3.1,3.8v1.8
		c0,2.9-1.2,4.5-4.6,4.5H143.4z M164.7,78.6c0-1.1-0.5-1.7-1.7-1.7h-15v4.2h14.8c1.1,0,1.9-0.4,1.9-1.7V78.6z M165,86.2
		c0-1.2-0.8-1.7-2-1.7h-15v4.5h15.3c1.2,0,1.7-0.6,1.7-1.8V86.2z"/>
	<path class="st13" d="M177.7,92.9c-3.4,0-4.6-1.6-4.6-4.5v-2.7c0-2.9,1.2-4.5,4.6-4.5h16.8V80c0-1.8-0.8-2.7-2.5-2.7h-18.4v-4.2
		H193c4.1,0,6,2.1,6,6.4v13.4H177.7z M194.5,84.6h-15.1c-1.2,0-1.7,0.6-1.7,1.7v1c0,1.2,0.5,1.8,1.7,1.8h15.1V84.6z"/>
	<path class="st13" d="M208.8,92.9c-4.1,0-6.1-2.1-6.1-6.4V73.1h4.6V86c0,1.8,0.8,2.7,2.4,2.7h14.8v4.2H208.8z"/>
	<path class="st13" d="M233.3,92.9c-4.2,0-6.1-2.1-6.1-6.4v-6.9c0-4.3,1.9-6.4,6.1-6.4h18.1v4.2h-17.1c-1.7,0-2.5,0.9-2.5,2.7v6
		c0,1.8,0.8,2.7,2.5,2.7h17.1v4.2H233.3z"/>
	<path class="st13" d="M260.9,92.9c-4.2,0-6.1-2.1-6.1-6.4v-8.9c0-2.9,1.3-4.5,4.7-4.5h16.7c3.4,0,4.6,1.6,4.6,4.5v2.8
		c0,2.9-1.2,4.5-4.6,4.5h-16.8V86c0,1.8,0.8,2.7,2.5,2.7h18.4v4.2H260.9z M276.3,78.6c0-1.1-0.5-1.7-1.7-1.7h-13.4
		c-1.2,0-1.7,0.6-1.7,1.7v2.8h15.1c1.2,0,1.7-0.6,1.7-1.8V78.6z"/>
	<path class="st13" d="M306.7,92.9c-0.3-0.2-0.5-0.6-0.5-1.3v-3.7c0-1.3-0.8-1.8-2.1-1.8h-14.9v6.8h-4.6V73.1h21.2
		c3.4,0,4.6,1.6,4.6,4.5v2.5c0,3.3-1.6,3.8-2.8,4c1.2,0.1,3.1,0.8,3.1,3.8v3.7c0,0.7,0.2,1.1,0.5,1.3H306.7z M305.9,78.6
		c0-1.1-0.5-1.7-1.7-1.7h-15v5.6H304c1.1,0,1.9-0.4,1.9-1.7V78.6z"/>
</g>
</svg>
