<?xml version="1.0" encoding="utf-8"?>
<!-- Generator: Adobe Illustrator 26.3.1, SVG Export Plug-In . SVG Version: 6.00 Build 0)  -->
<svg version="1.1" id="Layer_1" xmlns="http://www.w3.org/2000/svg" xmlns:xlink="http://www.w3.org/1999/xlink" x="0px" y="0px"
	 viewBox="0 0 264 63" style="enable-background:new 0 0 264 63;" xml:space="preserve">
<style type="text/css">
	.st0{fill:#8260A8;}
</style>
<text transform="matrix(1 0 0 1 251.418 -11.6006)" style="font-family:'UniwarsSb-Regular'; font-size:12.4874px;"> </text>
<g>
	<path d="M15.2,21.7c-1.5,0-2.1-0.7-2.1-2.1v-1.2c0-1.3,0.6-2.1,2.1-2.1h7.7v-0.6c0-0.8-0.4-1.2-1.1-1.2h-8.5v-1.9h8.9
		c1.9,0,2.8,1,2.8,3v6.1H15.2z M22.9,17.9h-6.9c-0.6,0-0.8,0.3-0.8,0.8v0.5c0,0.5,0.2,0.8,0.8,0.8h6.9V17.9z"/>
	<path class="st0" d="M33.4,19.4v2.3h-2.1v-9.1h9.5c1.6,0,2.1,0.7,2.1,2.1v2.5c0,1.6-0.6,2.2-2.1,2.2H33.4z M40.8,15.2
		c0-0.5-0.2-0.8-0.8-0.8h-6.6v3.4H40c0.6,0,0.8-0.3,0.8-0.9V15.2z"/>
	<path class="st0" d="M46,21.7c-1.5,0-2.1-0.7-2.1-2.1v-1.2c0-1.3,0.6-2.1,2.1-2.1h7.7v-0.6c0-0.8-0.4-1.2-1.1-1.2h-8.5v-1.9H53
		c1.9,0,2.8,1,2.8,3v6.1H46z M53.7,17.9h-6.9c-0.6,0-0.8,0.3-0.8,0.8v0.5c0,0.5,0.2,0.8,0.8,0.8h6.9V17.9z"/>
	<path class="st0" d="M57.1,21.7v-1.8h8.6c0.6,0,0.8-0.3,0.8-0.8v-0.4c0-0.5-0.2-0.8-0.8-0.8h-6.5c-1.5,0-2.1-0.7-2.1-2.1v-1.2
		c0-1.3,0.6-2.1,2.1-2.1h9.2v1.8H60c-0.6,0-0.8,0.3-0.8,0.8v0.4c0,0.5,0.2,0.8,0.8,0.8h6.5c1.6,0,2.1,0.7,2.1,2.1v1.2
		c0,1.3-0.6,2.1-2.1,2.1H57.1z"/>
	<path class="st0" d="M69.8,21.7v-1.8h8.6c0.6,0,0.8-0.3,0.8-0.8v-0.4c0-0.5-0.2-0.8-0.8-0.8h-6.5c-1.5,0-2.1-0.7-2.1-2.1v-1.2
		c0-1.3,0.6-2.1,2.1-2.1h9.2v1.8h-8.4c-0.6,0-0.8,0.3-0.8,0.8v0.4c0,0.5,0.2,0.8,0.8,0.8h6.5c1.6,0,2.1,0.7,2.1,2.1v1.2
		c0,1.3-0.6,2.1-2.1,2.1H69.8z"/>
	<path class="st0" d="M82.6,21.7v-9.1h2.1v9.1H82.6z"/>
	<path class="st0" d="M88.8,21.7c-1.9,0-2.8-1-2.8-3v-3.2c0-2,0.9-3,2.8-3h6.3c1.9,0,2.8,1,2.8,3v3.2c0,2-0.9,3-2.8,3H88.8z
		 M95.8,15.8c0-0.8-0.3-1.2-1.1-1.2h-5.4c-0.8,0-1.1,0.4-1.1,1.2v2.8c0,0.8,0.3,1.2,1.1,1.2h5.4c0.8,0,1.1-0.4,1.1-1.2V15.8z"/>
	<path class="st0" d="M108.8,21.7v-5.9c0-0.8-0.4-1.2-1.1-1.2h-6.3v7.2h-2.1v-9.1h8.9c1.9,0,2.8,1,2.8,3v6.1H108.8z"/>
	<path class="st0" d="M114.4,21.7c-1.5,0-2.1-0.7-2.1-2.1v-1.2c0-1.3,0.6-2.1,2.1-2.1h7.7v-0.6c0-0.8-0.4-1.2-1.1-1.2h-8.5v-1.9h8.9
		c1.9,0,2.8,1,2.8,3v6.1H114.4z M122.1,17.9h-6.9c-0.6,0-0.8,0.3-0.8,0.8v0.5c0,0.5,0.2,0.8,0.8,0.8h6.9V17.9z"/>
	<path class="st0" d="M129.8,21.7v-7.2h-4.7v-1.9h11.6v1.9h-4.7v7.2H129.8z"/>
	<path class="st0" d="M140.3,21.7c-1.9,0-2.8-1-2.8-3v-4.1c0-1.3,0.6-2.1,2.1-2.1h7.7c1.6,0,2.1,0.7,2.1,2.1v1.3
		c0,1.3-0.6,2.1-2.1,2.1h-7.7v0.5c0,0.8,0.3,1.2,1.1,1.2h8.4v1.9H140.3z M147.3,15.2c0-0.5-0.2-0.8-0.8-0.8h-6.1
		c-0.6,0-0.8,0.3-0.8,0.8v1.3h6.9c0.6,0,0.8-0.3,0.8-0.8V15.2z"/>
	<path d="M157.7,21.7c-1.6,0-2.1-0.7-2.1-2.1v-0.8c0-1.4,0.9-1.7,1.4-1.8c-0.6-0.1-1.3-0.3-1.3-1.8v-0.6c0-1.3,0.6-2.1,2.1-2.1h3.6
		v1.8h-2.9c-0.6,0-0.8,0.3-0.8,0.8v0.4c0,0.6,0.3,0.8,0.9,0.8h7.2v5.3H157.7z M163.9,17.9h-5.2c-0.5,0-0.9,0.2-0.9,0.8v0.5
		c0,0.5,0.2,0.8,0.8,0.8h5.4V17.9z"/>
	<path d="M15.8,37.8c-1.9,0-2.8-1-2.8-3v-3.2c0-2,0.9-3,2.8-3h8.3v1.9h-7.8c-0.8,0-1.1,0.4-1.1,1.2v2.8c0,0.8,0.3,1.2,1.1,1.2h7.8
		v1.9H15.8z"/>
	<path d="M35.5,37.8c-0.1-0.1-0.2-0.3-0.2-0.6v-1.7c0-0.6-0.4-0.8-1-0.8h-6.8v3.1h-2.1v-9.1h9.7c1.5,0,2.1,0.7,2.1,2.1v1.2
		c0,1.5-0.7,1.7-1.3,1.8c0.6,0.1,1.4,0.3,1.4,1.7v1.7c0,0.3,0.1,0.5,0.2,0.6H35.5z M35.2,31.3c0-0.5-0.2-0.8-0.8-0.8h-6.9V33h6.8
		c0.5,0,0.9-0.2,0.9-0.8V31.3z"/>
	<path d="M41.3,37.8c-1.9,0-2.8-1-2.8-3v-4.1c0-1.3,0.6-2.1,2.1-2.1h7.7c1.6,0,2.1,0.7,2.1,2.1V32c0,1.3-0.6,2.1-2.1,2.1h-7.7v0.5
		c0,0.8,0.3,1.2,1.1,1.2h8.4v1.9H41.3z M48.3,31.3c0-0.5-0.2-0.8-0.8-0.8h-6.1c-0.6,0-0.8,0.3-0.8,0.8v1.3h6.9
		c0.6,0,0.8-0.3,0.8-0.8V31.3z"/>
	<path d="M53.8,37.8c-1.5,0-2.1-0.7-2.1-2.1v-1.2c0-1.3,0.6-2.1,2.1-2.1h7.7v-0.6c0-0.8-0.4-1.2-1.1-1.2h-8.5v-1.9h8.9
		c1.9,0,2.8,1,2.8,3v6.1H53.8z M61.5,34h-6.9c-0.6,0-0.8,0.3-0.8,0.8v0.5c0,0.5,0.2,0.8,0.8,0.8h6.9V34z"/>
	<path d="M69.3,37.8v-7.2h-4.7v-1.9h11.6v1.9h-4.7v7.2H69.3z"/>
	<path d="M77.1,37.8v-9.1h2.1v9.1H77.1z"/>
	<path d="M84.7,37.8L80,28.7h2.5l3.7,7.4h1.4l3.7-7.4h2.4l-4.7,9.1H84.7z"/>
	<path d="M97.3,37.8c-1.9,0-2.8-1-2.8-3v-4.1c0-1.3,0.6-2.1,2.1-2.1h7.7c1.6,0,2.1,0.7,2.1,2.1V32c0,1.3-0.6,2.1-2.1,2.1h-7.7v0.5
		c0,0.8,0.3,1.2,1.1,1.2h8.4v1.9H97.3z M104.4,31.3c0-0.5-0.2-0.8-0.8-0.8h-6.1c-0.6,0-0.8,0.3-0.8,0.8v1.3h6.9
		c0.6,0,0.8-0.3,0.8-0.8V31.3z"/>
	<path class="st0" d="M115.5,37.8c-1.9,0-2.8-1-2.8-3v-6.1h2.1v5.9c0,0.8,0.4,1.2,1.1,1.2h3.1v-7.1h2.1v7.1h4.1v-7.1h2.1v9.1H115.5z
		"/>
	<path class="st0" d="M131.5,37.8c-1.9,0-2.8-1-2.8-3v-4.1c0-1.3,0.6-2.1,2.1-2.1h7.7c1.6,0,2.1,0.7,2.1,2.1V32
		c0,1.3-0.6,2.1-2.1,2.1h-7.7v0.5c0,0.8,0.3,1.2,1.1,1.2h8.4v1.9H131.5z M138.5,31.3c0-0.5-0.2-0.8-0.8-0.8h-6.1
		c-0.6,0-0.8,0.3-0.8,0.8v1.3h6.9c0.6,0,0.8-0.3,0.8-0.8V31.3z"/>
	<path class="st0" d="M142,37.8v-9.1h9.7c1.5,0,2.1,0.7,2.1,2.1v0.6c0,1.5-0.7,1.7-1.3,1.8c0.6,0.1,1.4,0.3,1.4,1.7v0.8
		c0,1.3-0.6,2.1-2.1,2.1H142z M151.7,31.3c0-0.5-0.2-0.8-0.8-0.8h-6.9v1.9h6.8c0.5,0,0.9-0.2,0.9-0.8V31.3z M151.9,34.7
		c0-0.6-0.4-0.8-0.9-0.8h-6.9V36h7c0.6,0,0.8-0.3,0.8-0.8V34.7z"/>
	<path class="st0" d="M160.2,37.8v-9.1h8.9c2,0,3,1.2,3,3.2v2.8c0,1.9-1,3.1-3,3.1H160.2z M170,32.3c0-1-0.3-1.7-1.3-1.7h-6.4v5.2h6
		c1.1,0,1.7-0.4,1.7-1.4V32.3z"/>
	<path class="st0" d="M176.1,37.8c-1.9,0-2.8-1-2.8-3v-4.1c0-1.3,0.6-2.1,2.1-2.1h7.7c1.6,0,2.1,0.7,2.1,2.1V32
		c0,1.3-0.6,2.1-2.1,2.1h-7.7v0.5c0,0.8,0.3,1.2,1.1,1.2h8.4v1.9H176.1z M183.1,31.3c0-0.5-0.2-0.8-0.8-0.8h-6.1
		c-0.6,0-0.8,0.3-0.8,0.8v1.3h6.9c0.6,0,0.8-0.3,0.8-0.8V31.3z"/>
	<path class="st0" d="M186.6,37.8V36h8.6c0.6,0,0.8-0.3,0.8-0.8v-0.4c0-0.5-0.2-0.8-0.8-0.8h-6.5c-1.5,0-2.1-0.7-2.1-2.1v-1.2
		c0-1.3,0.6-2.1,2.1-2.1h9.2v1.8h-8.4c-0.6,0-0.8,0.3-0.8,0.8v0.4c0,0.5,0.2,0.8,0.8,0.8h6.5c1.6,0,2.1,0.7,2.1,2.1v1.2
		c0,1.3-0.6,2.1-2.1,2.1H186.6z"/>
	<path class="st0" d="M199.4,37.8v-9.1h2.1v9.1H199.4z"/>
	<path class="st0" d="M204.9,37.8c-1.6,0-2.1-0.7-2.1-2.4v-3.7c0-2,0.9-3,2.8-3h8.8v1.9H206c-0.8,0-1.1,0.4-1.1,1.2v3.2
		c0,0.6,0.2,0.9,0.8,0.9h6.8v-3.2h2.1v5H204.9z"/>
	<path class="st0" d="M225.6,37.8v-5.9c0-0.8-0.4-1.2-1.1-1.2h-6.3v7.2H216v-9.1h8.9c1.9,0,2.8,1,2.8,3v6.1H225.6z"/>
	<path class="st0" d="M231.7,37.8c-1.9,0-2.8-1-2.8-3v-4.1c0-1.3,0.6-2.1,2.1-2.1h7.7c1.6,0,2.1,0.7,2.1,2.1V32
		c0,1.3-0.6,2.1-2.1,2.1h-7.7v0.5c0,0.8,0.3,1.2,1.1,1.2h8.4v1.9H231.7z M238.8,31.3c0-0.5-0.2-0.8-0.8-0.8h-6.1
		c-0.6,0-0.8,0.3-0.8,0.8v1.3h6.9c0.6,0,0.8-0.3,0.8-0.8V31.3z"/>
	<path class="st0" d="M252.3,37.8c-0.1-0.1-0.2-0.3-0.2-0.6v-1.7c0-0.6-0.4-0.8-1-0.8h-6.8v3.1h-2.1v-9.1h9.7c1.5,0,2.1,0.7,2.1,2.1
		v1.2c0,1.5-0.7,1.7-1.3,1.8c0.6,0.1,1.4,0.3,1.4,1.7v1.7c0,0.3,0.1,0.5,0.2,0.6H252.3z M252,31.3c0-0.5-0.2-0.8-0.8-0.8h-6.9V33
		h6.8c0.5,0,0.9-0.2,0.9-0.8V31.3z"/>
	<path d="M15.8,53.9c-1.9,0-2.8-1-2.8-3v-6.1h2.1v5.9c0,0.8,0.4,1.2,1.1,1.2h3.1v-7.1h2.1v7.1h4.1v-7.1h2.1v9.1H15.8z"/>
	<path d="M29.2,53.9v-9.1h2.1v9.1H29.2z"/>
	<path d="M37,53.9v-7.2h-4.7v-1.9h11.6v1.9H39v7.2H37z"/>
	<path d="M54.1,53.9v-3.8h-7.2v3.8h-2.1v-9.1h2.1v3.5h7.2v-3.5h2.1v9.1H54.1z"/>
	<path d="M64.6,53.9c-1.5,0-2.1-0.7-2.1-2.1v-1.2c0-1.3,0.6-2.1,2.1-2.1h7.7V48c0-0.8-0.4-1.2-1.1-1.2h-8.5v-1.9h8.9
		c1.9,0,2.8,1,2.8,3v6.1H64.6z M72.3,50.1h-6.9c-0.6,0-0.8,0.3-0.8,0.8v0.5c0,0.5,0.2,0.8,0.8,0.8h6.9V50.1z"/>
	<path d="M85.3,53.9V48c0-0.8-0.4-1.2-1.1-1.2h-6.3v7.2h-2.1v-9.1h8.9c1.9,0,2.8,1,2.8,3v6.1H85.3z"/>
	<path class="st0" d="M103.3,49.5c-0.3,0.6-0.7,1.1-1.2,1.6c-1.2,1-2.6,1.6-4.4,1.6c-1.7,0-3.2-0.5-4.4-1.6
		c-0.5-0.4-0.9-0.9-1.2-1.6c0.3-0.6,0.8-1.1,1.2-1.6c1.2-1,2.6-1.6,4.4-1.6c1.7,0,3.2,0.5,4.4,1.6C102.5,48.4,102.9,48.9,103.3,49.5
		z M99.7,49.5c0-0.6-0.2-1-0.6-1.4s-0.9-0.6-1.5-0.6c-0.3,0-0.6,0.1-0.9,0.2l-0.2-0.5c-1.6,0.3-2.7,1-3.5,2.3c0.2,0.4,0.5,0.7,0.8,1
		c0.7,0.7,1.6,1.1,2.7,1.3c-0.5-0.2-0.8-0.5-1.1-0.9c-0.3-0.4-0.4-0.9-0.4-1.4c0-0.3,0.1-0.6,0.2-0.9l0.5,0.2
		c-0.1,0.2-0.1,0.5-0.1,0.7c0,0.6,0.2,1,0.6,1.4s0.9,0.6,1.5,0.6s1.1-0.2,1.5-0.6S99.7,50.1,99.7,49.5z M99.2,49.5
		c0,0.4-0.2,0.8-0.5,1.1c-0.3,0.3-0.7,0.5-1.1,0.5c-0.4,0-0.8-0.2-1.1-0.5c-0.3-0.3-0.5-0.7-0.5-1.1c0-0.2,0-0.4,0.1-0.5l1.6,0.7
		L97,48.1c0.2-0.1,0.4-0.1,0.6-0.1c0.4,0,0.8,0.2,1.1,0.5C99.1,48.8,99.2,49.1,99.2,49.5z M102.2,49.5c-0.2-0.4-0.5-0.7-0.8-1
		c-0.7-0.7-1.6-1.2-2.7-1.3c0.5,0.2,0.8,0.5,1.1,0.9c0.3,0.4,0.4,0.9,0.4,1.4c0,0.5-0.1,1-0.4,1.4c-0.3,0.4-0.7,0.7-1.1,0.9
		C100.3,51.6,101.5,50.8,102.2,49.5z"/>
	<path d="M110,51.2v2.7h-2.1v-9.1h11.9v1.9H110v2.7h9.7v1.7H110z"/>
	<path d="M123.6,53.9c-1.9,0-2.8-1-2.8-3v-3.2c0-2,0.9-3,2.8-3h6.3c1.9,0,2.8,1,2.8,3v3.2c0,2-0.9,3-2.8,3H123.6z M130.6,48
		c0-0.8-0.3-1.2-1.1-1.2H124c-0.8,0-1.1,0.4-1.1,1.2v2.8c0,0.8,0.3,1.2,1.1,1.2h5.4c0.8,0,1.1-0.4,1.1-1.2V48z"/>
	<path d="M144.1,53.9c-0.1-0.1-0.2-0.3-0.2-0.6v-1.7c0-0.6-0.4-0.8-1-0.8h-6.8v3.1H134v-9.1h9.7c1.5,0,2.1,0.7,2.1,2.1V48
		c0,1.5-0.7,1.7-1.3,1.8c0.6,0.1,1.4,0.3,1.4,1.7v1.7c0,0.3,0.1,0.5,0.2,0.6H144.1z M143.8,47.4c0-0.5-0.2-0.8-0.8-0.8h-6.9v2.5h6.8
		c0.5,0,0.9-0.2,0.9-0.8V47.4z"/>
	<path class="st0" d="M152.1,53.9v-1.8h8.6c0.6,0,0.8-0.3,0.8-0.8v-0.4c0-0.5-0.2-0.8-0.8-0.8h-6.5c-1.5,0-2.1-0.7-2.1-2.1v-1.2
		c0-1.3,0.6-2.1,2.1-2.1h9.2v1.8h-8.4c-0.6,0-0.8,0.3-0.8,0.8v0.4c0,0.5,0.2,0.8,0.8,0.8h6.5c1.6,0,2.1,0.7,2.1,2.1v1.2
		c0,1.3-0.6,2.1-2.1,2.1H152.1z"/>
	<path class="st0" d="M169.1,53.9v-7.2h-4.7v-1.9H176v1.9h-4.7v7.2H169.1z"/>
	<path class="st0" d="M182.2,53.9v-3l-5.9-6.1h2.7l4.3,4.5l4.3-4.5h2.6l-5.8,6.1v2.9H182.2z"/>
	<path class="st0" d="M193.7,53.9c-1.9,0-2.8-1-2.8-3v-6.1h2.1v5.9c0,0.8,0.4,1.2,1.1,1.2h6.8v1.9H193.7z"/>
	<path class="st0" d="M204.6,53.9c-1.9,0-2.8-1-2.8-3v-4.1c0-1.3,0.6-2.1,2.1-2.1h7.7c1.6,0,2.1,0.7,2.1,2.1v1.3
		c0,1.3-0.6,2.1-2.1,2.1h-7.7v0.5c0,0.8,0.3,1.2,1.1,1.2h8.4v1.9H204.6z M211.6,47.4c0-0.5-0.2-0.8-0.8-0.8h-6.1
		c-0.6,0-0.8,0.3-0.8,0.8v1.3h6.9c0.6,0,0.8-0.3,0.8-0.8V47.4z"/>
</g>
<path d="M204.3-5.5"/>
</svg>
