<?xml version="1.0" encoding="utf-8"?>
<!-- Generator: Adobe Illustrator 26.3.1, SVG Export Plug-In . SVG Version: 6.00 Build 0)  -->
<svg version="1.1" id="Layer_1" xmlns="http://www.w3.org/2000/svg" xmlns:xlink="http://www.w3.org/1999/xlink" x="0px" y="0px"
	 viewBox="0 0 327 74" style="enable-background:new 0 0 327 74;" xml:space="preserve">
<style type="text/css">
	.st0{font-family:'UniwarsSb-Regular';}
	.st1{font-size:16.7592px;}
	.st2{fill:#8260A8;}
</style>
<text transform="matrix(1 0 0 1 262.2324 59.77)" class="st0 st1"> </text>
<g>
	<path d="M4.8,22.3c-2.1,0-2.8-1-2.8-2.8v-1.7c0-1.8,0.8-2.8,2.8-2.8h10.3v-0.8c0-1.1-0.5-1.7-1.5-1.7H2.3v-2.6h12
		c2.5,0,3.7,1.3,3.7,4v8.2H4.8z M15.1,17.2H5.8c-0.8,0-1,0.4-1,1.1v0.6c0,0.7,0.3,1.1,1,1.1h9.3V17.2z"/>
	<path class="st2" d="M29.2,19.3v3h-2.8V10.1h12.8c2.1,0,2.8,1,2.8,2.8v3.4c0,2.1-0.7,3-2.8,3H29.2z M39.2,13.6c0-0.7-0.3-1.1-1-1.1
		h-8.9V17h8.9c0.7,0,1-0.4,1-1.2V13.6z"/>
	<path class="st2" d="M46.1,22.3c-2.1,0-2.8-1-2.8-2.8v-1.7c0-1.8,0.8-2.8,2.8-2.8h10.3v-0.8c0-1.1-0.5-1.7-1.5-1.7H43.6v-2.6h12
		c2.5,0,3.7,1.3,3.7,4v8.2H46.1z M56.5,17.2h-9.3c-0.8,0-1,0.4-1,1.1v0.6c0,0.7,0.3,1.1,1,1.1h9.3V17.2z"/>
	<path class="st2" d="M61.1,22.3V20h11.6c0.7,0,1-0.4,1-1.1v-0.6c0-0.7-0.3-1.1-1-1.1h-8.8c-2.1,0-2.8-1-2.8-2.8v-1.5
		c0-1.8,0.8-2.8,2.8-2.8h12.3v2.4H64.9c-0.8,0-1,0.4-1,1.1V14c0,0.7,0.3,1.1,1,1.1h8.8c2.1,0,2.8,1,2.8,2.8v1.7
		c0,1.8-0.8,2.8-2.8,2.8H61.1z"/>
	<path class="st2" d="M78.2,22.3V20h11.6c0.7,0,1-0.4,1-1.1v-0.6c0-0.7-0.3-1.1-1-1.1H81c-2.1,0-2.8-1-2.8-2.8v-1.5
		c0-1.8,0.8-2.8,2.8-2.8h12.3v2.4H82c-0.8,0-1,0.4-1,1.1V14c0,0.7,0.3,1.1,1,1.1h8.8c2.1,0,2.8,1,2.8,2.8v1.7c0,1.8-0.8,2.8-2.8,2.8
		H78.2z"/>
	<path class="st2" d="M95.3,22.3V10.1h2.8v12.2H95.3z"/>
	<path class="st2" d="M103.6,22.3c-2.6,0-3.7-1.3-3.7-4v-4.3c0-2.6,1.2-4,3.7-4h8.5c2.6,0,3.7,1.3,3.7,4v4.3c0,2.6-1.2,4-3.7,4
		H103.6z M113.1,14.4c0-1.1-0.5-1.7-1.5-1.7h-7.3c-1,0-1.5,0.5-1.5,1.7v3.7c0,1.1,0.5,1.6,1.5,1.6h7.3c1,0,1.5-0.6,1.5-1.6V14.4z"/>
	<path class="st2" d="M130.5,22.3v-7.9c0-1.1-0.5-1.7-1.5-1.7h-8.5v9.6h-2.8V10.1h11.9c2.5,0,3.7,1.3,3.7,4v8.2H130.5z"/>
	<path class="st2" d="M137.9,22.3c-2.1,0-2.8-1-2.8-2.8v-1.7c0-1.8,0.8-2.8,2.8-2.8h10.3v-0.8c0-1.1-0.5-1.7-1.5-1.7h-11.3v-2.6h12
		c2.5,0,3.7,1.3,3.7,4v8.2H137.9z M148.3,17.2H139c-0.8,0-1,0.4-1,1.1v0.6c0,0.7,0.3,1.1,1,1.1h9.3V17.2z"/>
	<path class="st2" d="M158.7,22.3v-9.6h-6.3v-2.6h15.5v2.6h-6.4v9.6H158.7z"/>
	<path class="st2" d="M172.7,22.3c-2.6,0-3.7-1.3-3.7-4v-5.5c0-1.8,0.8-2.8,2.9-2.8h10.3c2.1,0,2.8,1,2.8,2.8v1.7
		c0,1.8-0.7,2.8-2.8,2.8h-10.3v0.7c0,1.1,0.5,1.6,1.5,1.6h11.3v2.6H172.7z M182.2,13.6c0-0.7-0.3-1.1-1-1.1h-8.2c-0.8,0-1,0.4-1,1.1
		v1.7h9.3c0.8,0,1-0.4,1-1.1V13.6z"/>
	<path d="M196.1,22.3c-2.1,0-2.8-1-2.8-2.8v-1.1c0-1.9,1.2-2.3,1.9-2.4c-0.8-0.1-1.7-0.4-1.7-2.4v-0.8c0-1.8,0.8-2.8,2.8-2.8h4.9
		v2.4h-3.8c-0.7,0-1,0.4-1,1.1v0.6c0,0.8,0.5,1.1,1.2,1.1h9.6v7.1H196.1z M204.4,17.2h-7c-0.7,0-1.2,0.3-1.2,1v0.6
		c0,0.7,0.3,1.1,1,1.1h7.2V17.2z"/>
	<path d="M5.6,43.9c-2.6,0-3.7-1.3-3.7-4v-4.3c0-2.6,1.2-4,3.7-4h11.1v2.6H6.2c-1,0-1.5,0.5-1.5,1.7v3.7c0,1.1,0.5,1.6,1.5,1.6h10.5
		v2.6H5.6z"/>
	<path d="M32.1,43.9c-0.2-0.1-0.3-0.4-0.3-0.8v-2.3c0-0.8-0.5-1.1-1.3-1.1h-9.2v4.2h-2.8V31.7h13.1c2.1,0,2.8,1,2.8,2.8v1.6
		c0,2-1,2.3-1.7,2.4c0.8,0.1,1.9,0.5,1.9,2.3v2.3c0,0.4,0.1,0.6,0.3,0.8H32.1z M31.6,35.2c0-0.7-0.3-1.1-1-1.1h-9.2v3.4h9.1
		c0.7,0,1.2-0.3,1.2-1.1V35.2z"/>
	<path d="M39.8,43.9c-2.6,0-3.7-1.3-3.7-4v-5.5c0-1.8,0.8-2.8,2.9-2.8h10.3c2.1,0,2.8,1,2.8,2.8v1.7c0,1.8-0.7,2.8-2.8,2.8H38.9v0.7
		c0,1.1,0.5,1.6,1.5,1.6h11.3v2.6H39.8z M49.3,35.2c0-0.7-0.3-1.1-1-1.1H40c-0.8,0-1,0.4-1,1.1v1.7h9.3c0.8,0,1-0.4,1-1.1V35.2z"/>
	<path d="M56.7,43.9c-2.1,0-2.8-1-2.8-2.8v-1.7c0-1.8,0.8-2.8,2.8-2.8H67V36c0-1.1-0.5-1.7-1.5-1.7H54.2v-2.6h12
		c2.5,0,3.7,1.3,3.7,4v8.2H56.7z M67,38.8h-9.3c-0.8,0-1,0.4-1,1.1v0.6c0,0.7,0.3,1.1,1,1.1H67V38.8z"/>
	<path d="M77.4,43.9v-9.6h-6.3v-2.6h15.5v2.6h-6.4v9.6H77.4z"/>
	<path d="M87.9,43.9V31.7h2.8v12.2H87.9z"/>
	<path d="M98.1,43.9l-6.3-12.2h3.4l5,9.9h1.9l5-9.9h3.3l-6.3,12.2H98.1z"/>
	<path d="M115.1,43.9c-2.6,0-3.7-1.3-3.7-4v-5.5c0-1.8,0.8-2.8,2.9-2.8h10.3c2.1,0,2.8,1,2.8,2.8v1.7c0,1.8-0.7,2.8-2.8,2.8h-10.3
		v0.7c0,1.1,0.5,1.6,1.5,1.6H127v2.6H115.1z M124.5,35.2c0-0.7-0.3-1.1-1-1.1h-8.2c-0.8,0-1,0.4-1,1.1v1.7h9.3c0.8,0,1-0.4,1-1.1
		V35.2z"/>
	<path class="st2" d="M139.4,43.9c-2.5,0-3.7-1.3-3.7-4v-8.2h2.8v7.9c0,1.1,0.5,1.6,1.5,1.6h4.2v-9.6h2.8v9.6h5.5v-9.6h2.8v12.2
		H139.4z"/>
	<path class="st2" d="M160.9,43.9c-2.6,0-3.7-1.3-3.7-4v-5.5c0-1.8,0.8-2.8,2.9-2.8h10.3c2.1,0,2.8,1,2.8,2.8v1.7
		c0,1.8-0.7,2.8-2.8,2.8H160v0.7c0,1.1,0.5,1.6,1.5,1.6h11.3v2.6H160.9z M170.3,35.2c0-0.7-0.3-1.1-1-1.1H161c-0.8,0-1,0.4-1,1.1
		v1.7h9.3c0.8,0,1-0.4,1-1.1V35.2z"/>
	<path class="st2" d="M175,43.9V31.7h13.1c2.1,0,2.8,1,2.8,2.8v0.8c0,2-1,2.3-1.7,2.4c0.8,0.1,1.9,0.5,1.9,2.3v1.1
		c0,1.8-0.7,2.8-2.8,2.8H175z M188.1,35.2c0-0.7-0.3-1.1-1-1.1h-9.2v2.6h9.1c0.7,0,1.2-0.3,1.2-1V35.2z M188.3,39.8
		c0-0.7-0.5-1-1.2-1h-9.2v2.8h9.4c0.8,0,1-0.4,1-1.1V39.8z"/>
	<path class="st2" d="M199.5,43.9V31.7h11.9c2.7,0,4.1,1.6,4.1,4.3v3.7c0,2.6-1.4,4.2-4.1,4.2H199.5z M212.6,36.6
		c0-1.4-0.4-2.3-1.8-2.3h-8.5v7h8.1c1.5,0,2.2-0.5,2.2-1.8V36.6z"/>
	<path class="st2" d="M220.8,43.9c-2.6,0-3.7-1.3-3.7-4v-5.5c0-1.8,0.8-2.8,2.9-2.8h10.3c2.1,0,2.8,1,2.8,2.8v1.7
		c0,1.8-0.7,2.8-2.8,2.8h-10.3v0.7c0,1.1,0.5,1.6,1.5,1.6h11.3v2.6H220.8z M230.2,35.2c0-0.7-0.3-1.1-1-1.1h-8.2c-0.8,0-1,0.4-1,1.1
		v1.7h9.3c0.8,0,1-0.4,1-1.1V35.2z"/>
	<path class="st2" d="M234.8,43.9v-2.4h11.6c0.7,0,1-0.4,1-1.1v-0.6c0-0.7-0.3-1.1-1-1.1h-8.8c-2.1,0-2.8-1-2.8-2.8v-1.5
		c0-1.8,0.8-2.8,2.8-2.8H250v2.4h-11.3c-0.8,0-1,0.4-1,1.1v0.5c0,0.7,0.3,1.1,1,1.1h8.8c2.1,0,2.8,1,2.8,2.8v1.7
		c0,1.8-0.8,2.8-2.8,2.8H234.8z"/>
	<path class="st2" d="M252,43.9V31.7h2.8v12.2H252z"/>
	<path class="st2" d="M259.4,43.9c-2.1,0-2.9-1-2.9-3.2v-5c0-2.6,1.2-4,3.7-4h11.8v2.6h-11.2c-1,0-1.5,0.5-1.5,1.7v4.3
		c0,0.8,0.3,1.2,1,1.2h9.2v-4.3h2.8v6.6H259.4z"/>
	<path class="st2" d="M287.2,43.9V36c0-1.1-0.5-1.7-1.5-1.7h-8.5v9.6h-2.8V31.7h11.9c2.5,0,3.7,1.3,3.7,4v8.2H287.2z"/>
	<path class="st2" d="M295.4,43.9c-2.6,0-3.7-1.3-3.7-4v-5.5c0-1.8,0.8-2.8,2.9-2.8h10.3c2.1,0,2.8,1,2.8,2.8v1.7
		c0,1.8-0.7,2.8-2.8,2.8h-10.3v0.7c0,1.1,0.5,1.6,1.5,1.6h11.3v2.6H295.4z M304.9,35.2c0-0.7-0.3-1.1-1-1.1h-8.2c-0.8,0-1,0.4-1,1.1
		v1.7h9.3c0.8,0,1-0.4,1-1.1V35.2z"/>
	<path class="st2" d="M323.1,43.9c-0.2-0.1-0.3-0.4-0.3-0.8v-2.3c0-0.8-0.5-1.1-1.3-1.1h-9.2v4.2h-2.8V31.7h13.1
		c2.1,0,2.8,1,2.8,2.8v1.6c0,2-1,2.3-1.7,2.4c0.8,0.1,1.9,0.5,1.9,2.3v2.3c0,0.4,0.1,0.6,0.3,0.8H323.1z M322.6,35.2
		c0-0.7-0.3-1.1-1-1.1h-9.2v3.4h9.1c0.7,0,1.2-0.3,1.2-1.1V35.2z"/>
	<path d="M5.7,65.5c-2.5,0-3.7-1.3-3.7-4v-8.2h2.8v7.9c0,1.1,0.5,1.6,1.5,1.6h4.2v-9.6h2.8v9.6h5.5v-9.6h2.8v12.2H5.7z"/>
	<path d="M23.6,65.5V53.3h2.8v12.2H23.6z"/>
	<path d="M34,65.5v-9.6h-6.3v-2.6h15.5v2.6h-6.4v9.6H34z"/>
	<path d="M57,65.5v-5.1h-9.7v5.1h-2.8V53.3h2.8V58H57v-4.7h2.8v12.2H57z"/>
	<path d="M71.1,65.5c-2.1,0-2.8-1-2.8-2.8v-1.7c0-1.8,0.8-2.8,2.8-2.8h10.3v-0.8c0-1.1-0.5-1.7-1.5-1.7H68.6v-2.6h12
		c2.5,0,3.7,1.3,3.7,4v8.2H71.1z M81.5,60.4h-9.3c-0.8,0-1,0.4-1,1.1v0.6c0,0.7,0.3,1.1,1,1.1h9.3V60.4z"/>
	<path d="M98.9,65.5v-7.9c0-1.1-0.5-1.7-1.5-1.7h-8.5v9.6h-2.8V53.3H98c2.5,0,3.7,1.3,3.7,4v8.2H98.9z"/>
	<path class="st2" d="M123,59.7c-0.5,0.8-1,1.5-1.7,2.1c-1.6,1.4-3.5,2.1-5.9,2.1s-4.3-0.7-5.9-2.1c-0.7-0.6-1.2-1.3-1.7-2.1
		c0.5-0.8,1-1.5,1.7-2.1c1.6-1.4,3.5-2.1,5.9-2.1s4.3,0.7,5.9,2.1C122,58.2,122.6,58.9,123,59.7z M118.3,59.7c0-0.8-0.3-1.4-0.8-1.9
		s-1.2-0.8-2-0.8c-0.4,0-0.8,0.1-1.2,0.2l-0.3-0.7c-2.1,0.4-3.7,1.4-4.7,3.1c0.3,0.5,0.6,1,1,1.3c1,0.9,2.2,1.5,3.6,1.8
		c-0.6-0.3-1.1-0.7-1.5-1.3s-0.6-1.2-0.6-1.9c0-0.4,0.1-0.8,0.2-1.2l0.7,0.2c-0.1,0.3-0.2,0.7-0.2,1c0,0.8,0.3,1.4,0.8,1.9
		s1.2,0.8,2,0.8s1.4-0.3,2-0.8S118.3,60.5,118.3,59.7z M117.6,59.7c0,0.6-0.2,1.1-0.6,1.5c-0.4,0.4-0.9,0.6-1.5,0.6
		c-0.6,0-1.1-0.2-1.5-0.6s-0.6-0.9-0.6-1.5c0-0.3,0-0.5,0.1-0.7l2.2,1l-1-2.1c0.3-0.1,0.5-0.2,0.8-0.2c0.6,0,1.1,0.2,1.5,0.6
		C117.4,58.7,117.6,59.1,117.6,59.7z M121.6,59.7c-0.3-0.5-0.6-1-1-1.4c-1-0.9-2.2-1.5-3.6-1.8c0.6,0.3,1.1,0.7,1.5,1.2
		c0.4,0.6,0.6,1.2,0.6,1.9c0,0.7-0.2,1.3-0.6,1.9c-0.4,0.6-0.9,1-1.5,1.3C119.1,62.5,120.6,61.4,121.6,59.7z"/>
	<path d="M132.1,61.9v3.7h-2.8V53.3h16v2.6h-13.2v3.6h13.1v2.3H132.1z"/>
	<path d="M150.3,65.5c-2.6,0-3.7-1.3-3.7-4v-4.3c0-2.6,1.2-4,3.7-4h8.5c2.6,0,3.7,1.3,3.7,4v4.3c0,2.6-1.2,4-3.7,4H150.3z
		 M159.7,57.6c0-1.1-0.5-1.7-1.5-1.7h-7.3c-1,0-1.5,0.5-1.5,1.7v3.7c0,1.1,0.5,1.6,1.5,1.6h7.3c1,0,1.5-0.6,1.5-1.6V57.6z"/>
	<path d="M177.9,65.5c-0.2-0.1-0.3-0.4-0.3-0.8v-2.3c0-0.8-0.5-1.1-1.3-1.1h-9.2v4.2h-2.8V53.3h13.1c2.1,0,2.8,1,2.8,2.8v1.6
		c0,2-1,2.3-1.7,2.4c0.8,0.1,1.9,0.5,1.9,2.3v2.3c0,0.4,0.1,0.6,0.3,0.8H177.9z M177.4,56.8c0-0.7-0.3-1.1-1-1.1h-9.2v3.4h9.1
		c0.7,0,1.2-0.3,1.2-1.1V56.8z"/>
	<path class="st2" d="M188.5,65.5v-2.4h11.6c0.7,0,1-0.4,1-1.1v-0.6c0-0.7-0.3-1.1-1-1.1h-8.8c-2.1,0-2.8-1-2.8-2.8v-1.5
		c0-1.8,0.8-2.8,2.8-2.8h12.3v2.4h-11.3c-0.8,0-1,0.4-1,1.1v0.5c0,0.7,0.3,1.1,1,1.1h8.8c2.1,0,2.8,1,2.8,2.8v1.7
		c0,1.8-0.8,2.8-2.8,2.8H188.5z"/>
	<path class="st2" d="M211.4,65.5v-9.6h-6.3v-2.6h15.5v2.6h-6.4v9.6H211.4z"/>
	<path class="st2" d="M229,65.5v-4l-7.9-8.2h3.6l5.7,6l5.7-6h3.5l-7.8,8.2v3.9H229z"/>
	<path class="st2" d="M244.4,65.5c-2.5,0-3.7-1.3-3.7-4v-8.2h2.8v7.9c0,1.1,0.5,1.6,1.5,1.6h9.1v2.6H244.4z"/>
	<path class="st2" d="M259,65.5c-2.6,0-3.7-1.3-3.7-4v-5.5c0-1.8,0.8-2.8,2.9-2.8h10.3c2.1,0,2.8,1,2.8,2.8v1.7
		c0,1.8-0.7,2.8-2.8,2.8h-10.3v0.7c0,1.1,0.5,1.6,1.5,1.6H271v2.6H259z M268.5,56.8c0-0.7-0.3-1.1-1-1.1h-8.2c-0.8,0-1,0.4-1,1.1
		v1.7h9.3c0.8,0,1-0.4,1-1.1V56.8z"/>
</g>
</svg>
