<?xml version="1.0" encoding="utf-8"?>
<!-- Generator: Adobe Illustrator 26.3.1, SVG Export Plug-In . SVG Version: 6.00 Build 0)  -->
<svg version="1.1" id="Layer_1" xmlns="http://www.w3.org/2000/svg" xmlns:xlink="http://www.w3.org/1999/xlink" x="0px" y="0px"
	 viewBox="0 0 402 108" style="enable-background:new 0 0 402 108;" xml:space="preserve">
<style type="text/css">
	.st0{font-family:'UniwarsSb-Regular';}
	.st1{font-size:14.4872px;}
	.st2{fill:#8260A8;}
	.st3{fill:none;}
	.st4{fill:none;stroke:#694698;stroke-miterlimit:10;}
	.st5{fill:url(#SVGID_1_);}
	.st6{fill:url(#SVGID_00000171686403189335367160000018325427376112791464_);}
	.st7{fill:url(#SVGID_00000152970818795209393360000014319358278183634575_);}
	.st8{fill:url(#SVGID_00000063627267719506240350000002962868488434466973_);}
	.st9{fill:url(#SVGID_00000071552270988559499290000018378140171789546372_);}
	.st10{fill:url(#SVGID_00000093177429884831707530000010958329663769593487_);}
	.st11{fill:url(#SVGID_00000088820717129358382570000005841136939741010307_);}
	.st12{fill:url(#SVGID_00000135662980724699278790000006283485169256255118_);}
	.st13{fill:url(#SVGID_00000140009900191416166690000002491323990347960204_);}
	.st14{fill:url(#SVGID_00000054256066098943637220000011586511624295389082_);}
</style>
<text transform="matrix(1 0 0 1 290.2393 21.0762)" class="st0 st1"> </text>
<g>
	<path d="M11.5,42.3c-1.8,0-2.4-0.8-2.4-2.4v-1.4c0-1.5,0.7-2.4,2.4-2.4h8.9v-0.7c0-1-0.4-1.4-1.3-1.4H9.3v-2.2h10.3
		c2.2,0,3.2,1.1,3.2,3.4v7.1H11.5z M20.4,37.9h-8c-0.7,0-0.9,0.3-0.9,0.9v0.5c0,0.6,0.2,0.9,0.9,0.9h8V37.9z"/>
	<path class="st2" d="M32.6,39.7v2.6h-2.4V31.8h11c1.8,0,2.4,0.8,2.4,2.4v3c0,1.8-0.6,2.6-2.4,2.6H32.6z M41.2,34.7
		c0-0.6-0.2-0.9-0.9-0.9h-7.7v3.9h7.7c0.6,0,0.9-0.3,0.9-1V34.7z"/>
	<path class="st2" d="M47.2,42.3c-1.8,0-2.4-0.8-2.4-2.4v-1.4c0-1.5,0.7-2.4,2.4-2.4h8.9v-0.7c0-1-0.4-1.4-1.3-1.4h-9.8v-2.2h10.3
		c2.2,0,3.2,1.1,3.2,3.4v7.1H47.2z M56.2,37.9h-8c-0.7,0-0.9,0.3-0.9,0.9v0.5c0,0.6,0.2,0.9,0.9,0.9h8V37.9z"/>
	<path class="st2" d="M60.1,42.3v-2h10c0.6,0,0.9-0.3,0.9-0.9v-0.5c0-0.6-0.2-0.9-0.9-0.9h-7.6c-1.8,0-2.4-0.9-2.4-2.4v-1.3
		c0-1.5,0.7-2.4,2.4-2.4h10.7v2h-9.8c-0.7,0-0.9,0.3-0.9,0.9v0.4c0,0.6,0.2,0.9,0.9,0.9h7.6c1.8,0,2.5,0.9,2.5,2.4v1.4
		c0,1.5-0.7,2.4-2.5,2.4H60.1z"/>
	<path class="st2" d="M74.9,42.3v-2h10c0.6,0,0.9-0.3,0.9-0.9v-0.5c0-0.6-0.2-0.9-0.9-0.9h-7.6c-1.8,0-2.4-0.9-2.4-2.4v-1.3
		c0-1.5,0.7-2.4,2.4-2.4H88v2h-9.8c-0.7,0-0.9,0.3-0.9,0.9v0.4c0,0.6,0.2,0.9,0.9,0.9h7.6c1.8,0,2.5,0.9,2.5,2.4v1.4
		c0,1.5-0.7,2.4-2.5,2.4H74.9z"/>
	<path class="st2" d="M89.8,42.3V31.8h2.4v10.5H89.8z"/>
	<path class="st2" d="M97,42.3c-2.2,0-3.2-1.1-3.2-3.4v-3.7c0-2.3,1-3.4,3.2-3.4h7.4c2.2,0,3.2,1.1,3.2,3.4v3.7c0,2.3-1,3.4-3.2,3.4
		H97z M105.1,35.4c0-1-0.4-1.4-1.3-1.4h-6.3c-0.9,0-1.3,0.5-1.3,1.4v3.2c0,0.9,0.4,1.4,1.3,1.4h6.3c0.9,0,1.3-0.5,1.3-1.4V35.4z"/>
	<path class="st2" d="M120.2,42.3v-6.9c0-0.9-0.4-1.4-1.3-1.4h-7.4v8.3h-2.4V31.8h10.3c2.2,0,3.2,1.2,3.2,3.4v7.1H120.2z"/>
	<path class="st2" d="M126.6,42.3c-1.8,0-2.4-0.8-2.4-2.4v-1.4c0-1.5,0.7-2.4,2.4-2.4h8.9v-0.7c0-1-0.4-1.4-1.3-1.4h-9.8v-2.2h10.3
		c2.2,0,3.2,1.1,3.2,3.4v7.1H126.6z M135.5,37.9h-8c-0.7,0-0.9,0.3-0.9,0.9v0.5c0,0.6,0.2,0.9,0.9,0.9h8V37.9z"/>
	<path class="st2" d="M144.5,42.3V34H139v-2.2h13.4V34H147v8.3H144.5z"/>
	<path class="st2" d="M156.7,42.3c-2.2,0-3.2-1.1-3.2-3.4v-4.7c0-1.5,0.7-2.4,2.5-2.4h8.9c1.8,0,2.4,0.8,2.4,2.4v1.5
		c0,1.5-0.6,2.4-2.4,2.4h-8.9v0.6c0,0.9,0.4,1.4,1.3,1.4h9.8v2.3H156.7z M164.8,34.7c0-0.6-0.2-0.9-0.9-0.9h-7.1
		c-0.7,0-0.9,0.3-0.9,0.9v1.5h8c0.7,0,0.9-0.3,0.9-0.9V34.7z"/>
	<path d="M176.9,42.3c-1.8,0-2.5-0.8-2.5-2.4V39c0-1.6,1-2,1.7-2c-0.7-0.1-1.5-0.3-1.5-2.1v-0.7c0-1.5,0.7-2.4,2.4-2.4h4.2v2H178
		c-0.6,0-0.9,0.3-0.9,0.9v0.5c0,0.7,0.4,0.9,1,0.9h8.3v6.1H176.9z M184,37.9h-6.1c-0.6,0-1,0.2-1,0.9v0.5c0,0.6,0.2,0.9,0.9,0.9h6.2
		V37.9z"/>
	<path d="M12.2,61C10,61,9,59.8,9,57.5v-3.7c0-2.3,1-3.4,3.2-3.4h9.6v2.2h-9.1c-0.9,0-1.3,0.5-1.3,1.4v3.2c0,0.9,0.4,1.4,1.3,1.4
		h9.1V61H12.2z"/>
	<path d="M35.1,61c-0.2-0.1-0.3-0.3-0.3-0.7v-2c0-0.7-0.4-0.9-1.1-0.9h-7.9V61h-2.4V50.4h11.3c1.8,0,2.4,0.8,2.4,2.4v1.4
		c0,1.7-0.9,2-1.5,2.1c0.7,0.1,1.6,0.4,1.6,2v2c0,0.4,0.1,0.6,0.3,0.7H35.1z M34.7,53.4c0-0.6-0.2-0.9-0.9-0.9h-8v3h7.9
		c0.6,0,1-0.2,1-0.9V53.4z"/>
	<path d="M41.8,61c-2.2,0-3.2-1.1-3.2-3.4v-4.7c0-1.5,0.7-2.4,2.5-2.4h8.9c1.8,0,2.4,0.8,2.4,2.4v1.5c0,1.5-0.6,2.4-2.4,2.4H41v0.6
		c0,0.9,0.4,1.4,1.3,1.4h9.8V61H41.8z M50,53.4c0-0.6-0.2-0.9-0.9-0.9h-7.1c-0.7,0-0.9,0.3-0.9,0.9v1.5h8c0.7,0,0.9-0.3,0.9-0.9
		V53.4z"/>
	<path d="M56.4,61c-1.8,0-2.4-0.8-2.4-2.4v-1.4c0-1.5,0.7-2.4,2.4-2.4h8.9v-0.7c0-1-0.4-1.4-1.3-1.4h-9.8v-2.2h10.3
		c2.2,0,3.2,1.1,3.2,3.4V61H56.4z M65.3,56.5h-8c-0.7,0-0.9,0.3-0.9,0.9V58c0,0.6,0.2,0.9,0.9,0.9h8V56.5z"/>
	<path d="M74.3,61v-8.3h-5.5v-2.2h13.4v2.2h-5.5V61H74.3z"/>
	<path d="M83.3,61V50.4h2.4V61H83.3z"/>
	<path d="M92.2,61l-5.5-10.5h2.9L94,59h1.7l4.3-8.6h2.8L97.3,61H92.2z"/>
	<path d="M106.8,61c-2.2,0-3.2-1.1-3.2-3.4v-4.7c0-1.5,0.7-2.4,2.5-2.4h8.9c1.8,0,2.4,0.8,2.4,2.4v1.5c0,1.5-0.6,2.4-2.4,2.4H106
		v0.6c0,0.9,0.4,1.4,1.3,1.4h9.8V61H106.8z M115,53.4c0-0.6-0.2-0.9-0.9-0.9h-7.1c-0.7,0-0.9,0.3-0.9,0.9v1.5h8
		c0.7,0,0.9-0.3,0.9-0.9V53.4z"/>
	<path class="st2" d="M127.9,61c-2.2,0-3.2-1.2-3.2-3.4v-7.1h2.4v6.9c0,0.9,0.4,1.4,1.3,1.4h3.6v-8.3h2.5v8.3h4.8v-8.3h2.5V61H127.9
		z"/>
	<path class="st2" d="M146.5,61c-2.2,0-3.2-1.1-3.2-3.4v-4.7c0-1.5,0.7-2.4,2.5-2.4h8.9c1.8,0,2.4,0.8,2.4,2.4v1.5
		c0,1.5-0.6,2.4-2.4,2.4h-8.9v0.6c0,0.9,0.4,1.4,1.3,1.4h9.8V61H146.5z M154.6,53.4c0-0.6-0.2-0.9-0.9-0.9h-7.1
		c-0.7,0-0.9,0.3-0.9,0.9v1.5h8c0.7,0,0.9-0.3,0.9-0.9V53.4z"/>
	<path class="st2" d="M158.6,61V50.4h11.3c1.8,0,2.4,0.8,2.4,2.4v0.7c0,1.7-0.9,2-1.5,2.1c0.7,0.1,1.7,0.4,1.7,2v1
		c0,1.5-0.6,2.4-2.4,2.4H158.6z M170,53.4c0-0.6-0.2-0.9-0.9-0.9h-8v2.2h7.9c0.6,0,1-0.2,1-0.9V53.4z M170.1,57.4
		c0-0.6-0.4-0.9-1-0.9h-8v2.4h8.1c0.7,0,0.9-0.3,0.9-0.9V57.4z"/>
	<path class="st2" d="M179.8,61V50.4h10.3c2.3,0,3.5,1.4,3.5,3.7v3.2c0,2.2-1.2,3.6-3.5,3.6H179.8z M191.2,54.6c0-1.2-0.4-2-1.6-2
		h-7.4v6h7c1.3,0,1.9-0.5,1.9-1.6V54.6z"/>
	<path class="st2" d="M198.2,61c-2.2,0-3.2-1.1-3.2-3.4v-4.7c0-1.5,0.7-2.4,2.5-2.4h8.9c1.8,0,2.4,0.8,2.4,2.4v1.5
		c0,1.5-0.6,2.4-2.4,2.4h-8.9v0.6c0,0.9,0.4,1.4,1.3,1.4h9.8V61H198.2z M206.4,53.4c0-0.6-0.2-0.9-0.9-0.9h-7.1
		c-0.7,0-0.9,0.3-0.9,0.9v1.5h8c0.7,0,0.9-0.3,0.9-0.9V53.4z"/>
	<path class="st2" d="M210.4,61v-2h10c0.6,0,0.9-0.3,0.9-0.9v-0.5c0-0.6-0.2-0.9-0.9-0.9h-7.6c-1.8,0-2.4-0.9-2.4-2.4v-1.3
		c0-1.5,0.7-2.4,2.4-2.4h10.7v2h-9.8c-0.7,0-0.9,0.3-0.9,0.9v0.4c0,0.6,0.2,0.9,0.9,0.9h7.6c1.8,0,2.5,0.9,2.5,2.4v1.4
		c0,1.5-0.7,2.4-2.5,2.4H210.4z"/>
	<path class="st2" d="M225.2,61V50.4h2.4V61H225.2z"/>
	<path class="st2" d="M231.6,61c-1.8,0-2.5-0.8-2.5-2.8v-4.3c0-2.3,1-3.4,3.2-3.4h10.2v2.2h-9.7c-0.9,0-1.3,0.5-1.3,1.4v3.8
		c0,0.7,0.2,1.1,0.9,1.1h7.9v-3.7h2.4V61H231.6z"/>
	<path class="st2" d="M255.6,61v-6.9c0-0.9-0.4-1.4-1.3-1.4H247V61h-2.4V50.4h10.3c2.2,0,3.2,1.2,3.2,3.4V61H255.6z"/>
	<path class="st2" d="M262.8,61c-2.2,0-3.2-1.1-3.2-3.4v-4.7c0-1.5,0.7-2.4,2.5-2.4h8.9c1.8,0,2.4,0.8,2.4,2.4v1.5
		c0,1.5-0.6,2.4-2.4,2.4H262v0.6c0,0.9,0.4,1.4,1.3,1.4h9.8V61H262.8z M270.9,53.4c0-0.6-0.2-0.9-0.9-0.9h-7.1
		c-0.7,0-0.9,0.3-0.9,0.9v1.5h8c0.7,0,0.9-0.3,0.9-0.9V53.4z"/>
	<path class="st2" d="M286.7,61c-0.2-0.1-0.3-0.3-0.3-0.7v-2c0-0.7-0.4-0.9-1.1-0.9h-7.9V61h-2.4V50.4h11.3c1.8,0,2.4,0.8,2.4,2.4
		v1.4c0,1.7-0.9,2-1.5,2.1c0.7,0.1,1.7,0.4,1.7,2v2c0,0.4,0.1,0.6,0.3,0.7H286.7z M286.3,53.4c0-0.6-0.2-0.9-0.9-0.9h-8v3h7.9
		c0.6,0,1-0.2,1-0.9V53.4z"/>
	<path d="M12.3,79.6c-2.2,0-3.2-1.2-3.2-3.4v-7.1h2.4V76c0,0.9,0.4,1.4,1.3,1.4h3.6v-8.3h2.5v8.3h4.8v-8.3h2.5v10.5H12.3z"/>
	<path d="M27.7,79.6V69.1h2.4v10.5H27.7z"/>
	<path d="M36.8,79.6v-8.3h-5.5v-2.2h13.4v2.2h-5.5v8.3H36.8z"/>
	<path d="M56.7,79.6v-4.4h-8.4v4.4h-2.4V69.1h2.4v4h8.4v-4h2.4v10.5H56.7z"/>
	<path d="M68.8,79.6c-1.8,0-2.4-0.8-2.4-2.4v-1.4c0-1.5,0.7-2.4,2.4-2.4h8.9v-0.7c0-1-0.4-1.4-1.3-1.4h-9.8v-2.2H77
		c2.2,0,3.2,1.1,3.2,3.4v7.1H68.8z M77.8,75.2h-8c-0.7,0-0.9,0.3-0.9,0.9v0.5c0,0.6,0.2,0.9,0.9,0.9h8V75.2z"/>
	<path d="M92.9,79.6v-6.9c0-0.9-0.4-1.4-1.3-1.4h-7.4v8.3h-2.4V69.1h10.3c2.2,0,3.2,1.2,3.2,3.4v7.1H92.9z"/>
	<path class="st2" d="M113.7,74.6c-0.4,0.7-0.9,1.3-1.4,1.8c-1.4,1.2-3.1,1.8-5.1,1.8c-2,0-3.7-0.6-5.1-1.8c-0.6-0.5-1-1.1-1.4-1.8
		c0.4-0.7,0.9-1.3,1.4-1.8c1.4-1.2,3.1-1.8,5.1-1.8c2,0,3.7,0.6,5.1,1.8C112.8,73.3,113.3,73.9,113.7,74.6z M109.6,74.6
		c0-0.6-0.2-1.2-0.7-1.7c-0.5-0.5-1-0.7-1.7-0.7c-0.3,0-0.7,0.1-1,0.2l-0.3-0.6c-1.8,0.3-3.2,1.2-4,2.7c0.2,0.4,0.5,0.8,0.9,1.2
		c0.8,0.8,1.9,1.3,3.1,1.5c-0.5-0.2-1-0.6-1.3-1.1c-0.3-0.5-0.5-1-0.5-1.6c0-0.4,0.1-0.7,0.2-1l0.6,0.2c-0.1,0.3-0.2,0.6-0.2,0.9
		c0,0.7,0.2,1.2,0.7,1.7c0.5,0.5,1,0.7,1.7,0.7s1.2-0.2,1.7-0.7C109.4,75.8,109.6,75.3,109.6,74.6z M109,74.6c0,0.5-0.2,0.9-0.5,1.3
		c-0.4,0.3-0.8,0.5-1.3,0.5c-0.5,0-0.9-0.2-1.3-0.5c-0.4-0.3-0.5-0.8-0.5-1.3c0-0.2,0-0.4,0.1-0.6l1.9,0.8l-0.9-1.8
		c0.2-0.1,0.5-0.2,0.7-0.2c0.5,0,0.9,0.2,1.3,0.5C108.8,73.7,109,74.1,109,74.6z M112.5,74.6c-0.2-0.4-0.5-0.8-0.9-1.2
		c-0.9-0.8-1.9-1.3-3.1-1.5c0.5,0.2,1,0.6,1.3,1.1c0.3,0.5,0.5,1,0.5,1.6c0,0.6-0.2,1.1-0.5,1.6c-0.3,0.5-0.8,0.8-1.3,1.1
		C110.3,77,111.6,76.1,112.5,74.6z"/>
	<path d="M121.5,76.5v3.2h-2.4V69.1h13.8v2.2h-11.4v3.1h11.3v2H121.5z"/>
	<path d="M137.3,79.6c-2.2,0-3.2-1.1-3.2-3.4v-3.7c0-2.3,1-3.4,3.2-3.4h7.4c2.2,0,3.2,1.1,3.2,3.4v3.7c0,2.3-1,3.4-3.2,3.4H137.3z
		 M145.4,72.8c0-1-0.4-1.4-1.3-1.4h-6.3c-0.9,0-1.3,0.5-1.3,1.4V76c0,0.9,0.4,1.4,1.3,1.4h6.3c0.9,0,1.3-0.5,1.3-1.4V72.8z"/>
	<path d="M161.1,79.6c-0.2-0.1-0.3-0.3-0.3-0.7v-2c0-0.7-0.4-0.9-1.1-0.9h-7.9v3.6h-2.4V69.1h11.3c1.8,0,2.4,0.8,2.4,2.4v1.4
		c0,1.7-0.9,2-1.5,2.1c0.7,0.1,1.7,0.4,1.7,2v2c0,0.4,0.1,0.6,0.3,0.7H161.1z M160.7,72.1c0-0.6-0.2-0.9-0.9-0.9h-8v3h7.9
		c0.6,0,1-0.2,1-0.9V72.1z"/>
	<path class="st2" d="M170.3,79.6v-2h10c0.6,0,0.9-0.3,0.9-0.9v-0.5c0-0.6-0.2-0.9-0.9-0.9h-7.6c-1.8,0-2.4-0.9-2.4-2.4v-1.3
		c0-1.5,0.7-2.4,2.4-2.4h10.7v2h-9.8c-0.7,0-0.9,0.3-0.9,0.9v0.4c0,0.6,0.2,0.9,0.9,0.9h7.6c1.8,0,2.5,0.9,2.5,2.4v1.4
		c0,1.5-0.7,2.4-2.5,2.4H170.3z"/>
	<path class="st2" d="M190.1,79.6v-8.3h-5.5v-2.2h13.4v2.2h-5.5v8.3H190.1z"/>
	<path class="st2" d="M205.3,79.6v-3.4l-6.8-7.1h3.1l4.9,5.2l4.9-5.2h3l-6.8,7.1v3.4H205.3z"/>
	<path class="st2" d="M218.6,79.6c-2.2,0-3.2-1.1-3.2-3.4v-7.1h2.4V76c0,0.9,0.4,1.4,1.3,1.4h7.9v2.3H218.6z"/>
	<path class="st2" d="M231.3,79.6c-2.2,0-3.2-1.1-3.2-3.4v-4.7c0-1.5,0.7-2.4,2.5-2.4h8.9c1.8,0,2.4,0.8,2.4,2.4V73
		c0,1.5-0.6,2.4-2.4,2.4h-8.9V76c0,0.9,0.4,1.4,1.3,1.4h9.8v2.3H231.3z M239.4,72.1c0-0.6-0.2-0.9-0.9-0.9h-7.1
		c-0.7,0-0.9,0.3-0.9,0.9v1.5h8c0.7,0,0.9-0.3,0.9-0.9V72.1z"/>
</g>
<rect x="301.4" y="35.3" class="st3" width="301.3" height="338.5"/>
<rect x="280.5" y="53.1" class="st3" width="138.6" height="130.9"/>
<path class="st4" d="M307.7,15.5c6.2,3.7,5.1,26.2,5.1,26.2"/>
<path class="st4" d="M312.3,12.9c0,0,5.7,7.6,1.6,26.9"/>
<linearGradient id="SVGID_1_" gradientUnits="userSpaceOnUse" x1="223.632" y1="73.6448" x2="233.381" y2="73.6448" gradientTransform="matrix(-1 0 0 1 596.9175 0)">
	<stop  offset="0.1388" style="stop-color:#FCE200"/>
	<stop  offset="0.1476" style="stop-color:#FBDF00"/>
	<stop  offset="0.3451" style="stop-color:#EFB402"/>
	<stop  offset="0.495" style="stop-color:#E9990A"/>
	<stop  offset="0.5787" style="stop-color:#E7900C"/>
	<stop  offset="0.7554" style="stop-color:#AF6E5A"/>
	<stop  offset="0.9989" style="stop-color:#694698"/>
</linearGradient>
<path class="st5" d="M362.6,67.9c0,0,2.1,7.3,12,11.5c0,0,2.2-0.6-1.6-1.8c0,0-6.8-3.5-8.5-9.6H362.6z"/>
<linearGradient id="SVGID_00000120530346588393775410000013336443050043283355_" gradientUnits="userSpaceOnUse" x1="207.8272" y1="58.7127" x2="281.2095" y2="58.7127" gradientTransform="matrix(-1 0 0 1 596.9175 0)">
	<stop  offset="0.1388" style="stop-color:#FCE200"/>
	<stop  offset="0.1476" style="stop-color:#FBDF00"/>
	<stop  offset="0.3451" style="stop-color:#EFB402"/>
	<stop  offset="0.495" style="stop-color:#E9990A"/>
	<stop  offset="0.5787" style="stop-color:#E7900C"/>
	<stop  offset="0.7554" style="stop-color:#AF6E5A"/>
	<stop  offset="0.9989" style="stop-color:#694698"/>
</linearGradient>
<path style="fill:url(#SVGID_00000120530346588393775410000013336443050043283355_);" d="M314.5,39.7L346.3,57
	c0,0,14.7,8.5,21.1,8.6c0,0,9.5,1.1,23.7,8c0,0,3.5,1.7-2.2,2.3c0,0-20.1,7.9-43.6-9.5L313.1,42L314.5,39.7z"/>
<linearGradient id="SVGID_00000101790123061374910820000008408573691332788383_" gradientUnits="userSpaceOnUse" x1="290.6084" y1="45.373" x2="283.6556" y2="41.6491" gradientTransform="matrix(-1 0 0 1 596.9175 0)">
	<stop  offset="0.1388" style="stop-color:#FCE200"/>
	<stop  offset="0.1476" style="stop-color:#FBDF00"/>
	<stop  offset="0.3451" style="stop-color:#EFB402"/>
	<stop  offset="0.495" style="stop-color:#E9990A"/>
	<stop  offset="0.5787" style="stop-color:#E7900C"/>
	<stop  offset="0.7559" style="stop-color:#AF6E5A"/>
	<stop  offset="1" style="stop-color:#694698"/>
</linearGradient>
<path style="fill:url(#SVGID_00000101790123061374910820000008408573691332788383_);" d="M312.3,38.9c0,0,3.3-1.1,2.2,2
	c0,0-4.2,6.7-6.4,6.5c0,0-3,0.1,0.5-4.9C308.5,42.6,309.2,41.1,312.3,38.9z"/>
<linearGradient id="SVGID_00000116920938826297308130000017365253963253831094_" gradientUnits="userSpaceOnUse" x1="248.7347" y1="65.3635" x2="285.9003" y2="65.3635" gradientTransform="matrix(-1 0 0 1 596.9175 0)">
	<stop  offset="0.1388" style="stop-color:#FCE200"/>
	<stop  offset="0.1476" style="stop-color:#FBDF00"/>
	<stop  offset="0.3451" style="stop-color:#EFB402"/>
	<stop  offset="0.495" style="stop-color:#E9990A"/>
	<stop  offset="0.5787" style="stop-color:#E7900C"/>
	<stop  offset="0.7554" style="stop-color:#AF6E5A"/>
	<stop  offset="0.9989" style="stop-color:#694698"/>
</linearGradient>
<path style="fill:url(#SVGID_00000116920938826297308130000017365253963253831094_);" d="M330.1,54.9c0,0,4.2,10.8,1.3,10.6
	c0,0-19-4.6-22.9-2.9c0,0-4.7,1.6,4.4,8.1c0.2,0.1,0.4,0.3,0.5,0.5c1,1.2,5.7,5.8,11.7,4.5c0,0,2.5-0.9,7.6-0.6c0,0,0-1.2-9.5-0.7
	c0,0-4.5,0.7-8.3-3.4c0,0-4.7-3.8-5.9-5.8c0,0-0.9-1.1,5.8,3c0,0,3.5,3.6,14.3,2c0,0,6.9-0.9,6.9-5.5v-5.3L330.1,54.9z"/>
<linearGradient id="SVGID_00000055683093875455552080000014427553795087297204_" gradientUnits="userSpaceOnUse" x1="270.871" y1="75.6995" x2="294.3087" y2="75.6995" gradientTransform="matrix(-1 0 0 1 596.9175 0)">
	<stop  offset="0.1388" style="stop-color:#FCE200"/>
	<stop  offset="0.1476" style="stop-color:#FBDF00"/>
	<stop  offset="0.3451" style="stop-color:#EFB402"/>
	<stop  offset="0.495" style="stop-color:#E9990A"/>
	<stop  offset="0.5787" style="stop-color:#E7900C"/>
	<stop  offset="0.7554" style="stop-color:#AF6E5A"/>
	<stop  offset="0.9989" style="stop-color:#694698"/>
</linearGradient>
<path style="fill:url(#SVGID_00000055683093875455552080000014427553795087297204_);" d="M308.7,67.1c0,0-5.7-1.8-1.9,5
	c0,0,4.3,8.1,16.6,12.4c0,0,1.1-0.3-2.5-1.9c0,0-14-8.5-13.7-13.5c0,0,0.1-0.4,0.7-0.4l2.9,0.5L308.7,67.1z"/>
<linearGradient id="SVGID_00000037691215275122870940000005610298237997634451_" gradientUnits="userSpaceOnUse" x1="244.007" y1="79.3698" x2="255.9053" y2="79.3698" gradientTransform="matrix(-1 0 0 1 596.9175 0)">
	<stop  offset="0.1388" style="stop-color:#FCE200"/>
	<stop  offset="0.1476" style="stop-color:#FBDF00"/>
	<stop  offset="0.3451" style="stop-color:#EFB402"/>
	<stop  offset="0.495" style="stop-color:#E9990A"/>
	<stop  offset="0.5787" style="stop-color:#E7900C"/>
	<stop  offset="0.7554" style="stop-color:#AF6E5A"/>
	<stop  offset="0.9989" style="stop-color:#694698"/>
</linearGradient>
<path style="fill:url(#SVGID_00000037691215275122870940000005610298237997634451_);" d="M353.3,76.9l-0.6-5.7l3.1,1.6
	c0,0,0.1,9-1.5,6.2l-6.7-2.5c0,0,6.6,8.5,5.7,12.9c0,0-0.7-0.9-1.6-3.1c0,0-3.8-8.4-6.1-10.4c0,0-1.7-3.1,2.1-1.6l-6.3-5.3
	c0,0-1.9-2-1.7,2.1c0,0,3.8,13.3,0.9,20.4c0,0-2.1,1.7-1-0.6c0,0,1.5-6.9,0.2-11.3c0,0-3.4-11.1-0.6-12.6c0,0,1.6-2.2,10.8,7.5
	L353.3,76.9z"/>
<linearGradient id="SVGID_00000042727173065656543420000001461839882408377776_" gradientUnits="userSpaceOnUse" x1="225.9443" y1="82.51" x2="236.6616" y2="79.8679" gradientTransform="matrix(-1 0 0 1 596.9175 0)">
	<stop  offset="0" style="stop-color:#714798"/>
	<stop  offset="0.3288" style="stop-color:#FCE200"/>
	<stop  offset="0.336" style="stop-color:#FBDF00"/>
	<stop  offset="0.4946" style="stop-color:#EFB402"/>
	<stop  offset="0.615" style="stop-color:#E9990A"/>
	<stop  offset="0.6823" style="stop-color:#E7900C"/>
	<stop  offset="0.8154" style="stop-color:#AF6E5A"/>
	<stop  offset="0.9989" style="stop-color:#694698"/>
</linearGradient>
<path style="fill:url(#SVGID_00000042727173065656543420000001461839882408377776_);" d="M360.3,74.7c0,0,7.4,13.5,9.2,12.6
	c0,0,0.9-0.1,2.6-5.7l0.9-3.8l-2.2-0.3c0,0-0.5,6.6-1.2,7.5c0,0-0.3,0.8-5.7-9L360.3,74.7z"/>
<linearGradient id="SVGID_00000033369618641653551630000010105659604467691925_" gradientUnits="userSpaceOnUse" x1="229.6841" y1="61.9872" x2="233.4298" y2="61.9872" gradientTransform="matrix(-1 0 0 1 596.9175 0)">
	<stop  offset="0.1388" style="stop-color:#FCE200"/>
	<stop  offset="0.1476" style="stop-color:#FBDF00"/>
	<stop  offset="0.3451" style="stop-color:#EFB402"/>
	<stop  offset="0.495" style="stop-color:#E9990A"/>
	<stop  offset="0.5787" style="stop-color:#E7900C"/>
	<stop  offset="0.7554" style="stop-color:#AF6E5A"/>
	<stop  offset="0.9989" style="stop-color:#694698"/>
</linearGradient>
<path style="fill:url(#SVGID_00000033369618641653551630000010105659604467691925_);" d="M361.7,64.4l0.9-5.7c0,0-0.8-2.9,4.8,7
	l-2.8-0.4l-1-2.4l-0.3,2L361.7,64.4z"/>
<linearGradient id="SVGID_00000142160601878540334330000006888645379331285386_" gradientUnits="userSpaceOnUse" x1="208.1808" y1="83.4419" x2="217.6766" y2="83.4419" gradientTransform="matrix(-1 0 0 1 596.9175 0)">
	<stop  offset="0.1388" style="stop-color:#FCE200"/>
	<stop  offset="0.1476" style="stop-color:#FBDF00"/>
	<stop  offset="0.3451" style="stop-color:#EFB402"/>
	<stop  offset="0.495" style="stop-color:#E9990A"/>
	<stop  offset="0.5787" style="stop-color:#E7900C"/>
	<stop  offset="0.7554" style="stop-color:#AF6E5A"/>
	<stop  offset="0.9989" style="stop-color:#694698"/>
</linearGradient>
<path style="fill:url(#SVGID_00000142160601878540334330000006888645379331285386_);" d="M375.2,77.7c0,0,2.1,7.3,12,11.5
	c0,0,2.2-0.6-1.6-1.8c0,0-6.8-3.5-8.5-9.6H375.2z"/>
<linearGradient id="SVGID_00000145028154826877339630000013741895987653488537_" gradientUnits="userSpaceOnUse" x1="203.7659" y1="73.6002" x2="220.9005" y2="73.6002" gradientTransform="matrix(-1 0 0 1 596.9175 0)">
	<stop  offset="0.1388" style="stop-color:#FCE200"/>
	<stop  offset="0.1476" style="stop-color:#FBDF00"/>
	<stop  offset="0.3451" style="stop-color:#EFB402"/>
	<stop  offset="0.495" style="stop-color:#E9990A"/>
	<stop  offset="0.5787" style="stop-color:#E7900C"/>
	<stop  offset="0.7554" style="stop-color:#AF6E5A"/>
	<stop  offset="0.9989" style="stop-color:#694698"/>
</linearGradient>
<path style="fill:url(#SVGID_00000145028154826877339630000013741895987653488537_);" d="M370.8,77.4c0,0,3.7-21.1,4.4-20.6
	c0,0,0.6-2.8,2.5,3.6c0,0,7.7,22.7,17.9,28.8c0,0,3.4,2.7,0,1.6c0,0-12.7-7.3-19.4-30.1l-3.3,17.9"/>
<path d="M235.6,28.2"/>
</svg>
